<?xml version="1.0" standalone="no"?>
<!DOCTYPE svg PUBLIC "-//W3C//DTD SVG 20010904//EN"
 "http://www.w3.org/TR/2001/REC-SVG-20010904/DTD/svg10.dtd">
<svg version="1.0" xmlns="http://www.w3.org/2000/svg"
 width="512.000000pt" height="382.000000pt" viewBox="0 0 512.000000 382.000000"
 preserveAspectRatio="xMidYMid meet">

<g transform="translate(0.000000,382.000000) scale(0.100000,-0.100000)"
fill="#000000" stroke="none">
<path d="M4221 3435 c-118 -33 -193 -81 -205 -130 -4 -16 -16 -26 -38 -30
-125 -27 -213 -133 -233 -283 -7 -53 9 -152 25 -152 5 0 11 18 15 40 8 49 25
63 25 20 0 -34 20 -79 44 -99 14 -12 16 -5 16 61 0 124 41 239 115 325 l31 36
13 -44 c19 -63 45 -109 82 -147 40 -41 70 -57 174 -92 182 -63 192 -68 208
-114 9 -22 18 -66 22 -96 11 -90 24 -130 43 -130 9 0 39 16 66 35 122 87 198
5 117 -125 -5 -8 -18 -55 -30 -104 -11 -49 -37 -124 -57 -167 -20 -42 -33 -82
-30 -88 4 -6 25 -11 46 -11 49 0 70 -8 70 -27 0 -13 12 -15 68 -11 153 9 267
115 302 282 31 151 -34 283 -176 354 l-41 21 18 53 c23 67 24 186 3 259 -53
176 -156 286 -325 345 -95 33 -283 43 -368 19z"/>
<path d="M4258 2863 c-68 -26 -93 -49 -40 -37 46 11 112 42 112 53 0 6 -1 11
-2 10 -2 0 -33 -12 -70 -26z"/>
<path d="M3910 2870 c0 -5 13 -16 30 -25 33 -17 105 -21 95 -5 -3 6 -18 10
-33 10 -15 1 -38 7 -52 15 -30 17 -40 18 -40 5z"/>
<path d="M3934 2769 c-3 -6 1 -18 9 -26 18 -18 67 -10 67 11 0 24 -62 37 -76
15z"/>
<path d="M4290 2749 c-14 -6 -39 -9 -57 -7 -18 1 -34 -2 -35 -7 -4 -13 55 -19
99 -10 19 3 33 12 33 20 0 17 -5 18 -40 4z"/>
<path d="M535 2413 c-68 -15 -209 -68 -250 -94 -196 -125 -310 -414 -277 -711
26 -239 125 -459 276 -611 151 -153 340 -227 505 -199 101 17 234 69 294 113
193 144 287 469 232 804 -55 338 -267 606 -544 689 -51 15 -186 20 -236 9z
m254 -212 c133 -41 251 -151 325 -303 57 -117 76 -186 83 -314 19 -345 -195
-582 -463 -509 -381 103 -561 739 -292 1031 96 105 213 137 347 95z"/>
<path d="M690 2028 c-90 -16 -165 -96 -195 -209 -53 -197 54 -454 222 -534 49
-24 131 -31 178 -15 116 38 197 199 180 356 -27 252 -201 434 -385 402z m162
-240 c58 -41 87 -162 53 -228 -61 -118 -208 -47 -222 108 -4 49 -1 62 19 92
42 61 90 70 150 28z"/>
<path d="M3518 1623 c-42 -46 -77 -109 -123 -222 -84 -209 -162 -337 -234
-382 -39 -25 -42 -29 -20 -29 37 0 83 27 194 114 l100 78 6 137 c7 151 26 219
79 286 17 21 30 39 30 41 0 8 -7 3 -32 -23z"/>
<path d="M2635 1507 c-10 -40 0 -57 35 -57 37 0 37 6 1 50 l-29 35 -7 -28z"/>
<path d="M4362 585 c-14 -30 -16 -55 -4 -55 4 0 23 16 42 35 24 25 29 35 18
35 -9 0 -23 2 -30 5 -9 4 -19 -4 -26 -20z"/>
<path d="M4500 450 l-35 -30 30 6 c37 8 48 17 43 38 -2 14 -9 11 -38 -14z"/>
<path d="M3584 401 c-4 -25 -4 -122 -1 -216 4 -93 7 -173 7 -177 0 -5 126 -8
280 -8 242 0 280 2 280 15 0 8 -7 15 -16 15 -14 0 -15 8 -9 48 l7 47 -44 -43
c-24 -23 -49 -42 -56 -42 -26 0 -10 50 33 103 41 50 54 77 40 77 -3 0 -29 -18
-57 -40 -50 -40 -87 -49 -95 -23 -3 7 28 43 67 80 66 64 70 70 64 101 -5 25
-12 32 -29 32 -30 0 -50 24 -33 37 7 5 22 13 32 17 40 14 4 17 -66 6 -95 -16
-268 -15 -340 3 l-57 14 -7 -46z"/>
</g>
</svg>
