<?xml version="1.0" encoding="UTF-8"?>
<!DOCTYPE svg PUBLIC "-//W3C//DTD SVG 1.1//EN" "http://www.w3.org/Graphics/SVG/1.1/DTD/svg11.dtd">
<svg xmlns="http://www.w3.org/2000/svg" version="1.1" width="512px" height="512px" style="shape-rendering:geometricPrecision; text-rendering:geometricPrecision; image-rendering:optimizeQuality; fill-rule:evenodd; clip-rule:evenodd" xmlns:xlink="http://www.w3.org/1999/xlink">
<g><path style="opacity:0.995" fill="#ee4d37" d="M 232.5,-0.5 C 247.833,-0.5 263.167,-0.5 278.5,-0.5C 364.976,9.80479 431.142,51.8048 477,125.5C 491.647,150.798 501.814,177.798 507.5,206.5C 506.761,206.631 506.094,206.464 505.5,206C 482.965,183.298 460.299,160.798 437.5,138.5C 426.192,122.022 410.859,116.522 391.5,122C 386.285,124.435 381.618,127.601 377.5,131.5C 374.172,127.175 370.172,123.508 365.5,120.5C 365.5,119.833 365.167,119.5 364.5,119.5C 348.5,119.5 332.5,119.5 316.5,119.5C 316.5,125.5 316.5,131.5 316.5,137.5C 312.678,130.998 307.678,125.331 301.5,120.5C 295.347,119.347 289.014,119.18 282.5,120C 277.79,127.253 272.957,134.42 268,141.5C 264.307,134.759 260.14,128.426 255.5,122.5C 255.196,121.85 254.863,121.183 254.5,120.5C 248.167,119.167 241.833,119.167 235.5,120.5C 241.438,129.388 247.105,138.388 252.5,147.5C 247.167,142.5 241.833,137.5 236.5,132.5C 225.632,121.156 212.632,117.656 197.5,122C 186.656,127.862 183.156,136.696 187,148.5C 188.642,152.3 191.142,155.3 194.5,157.5C 201.14,163.473 207.473,169.806 213.5,176.5C 212.432,177.434 211.099,177.768 209.5,177.5C 191.167,158.5 172.5,139.833 153.5,121.5C 148.767,119.31 143.767,118.977 138.5,120.5C 135.818,127.192 133.151,133.859 130.5,140.5C 122.871,134.041 115.371,127.375 108,120.5C 107.826,125.684 107.326,130.684 106.5,135.5C 106.5,130.167 106.5,124.833 106.5,119.5C 93.5,119.5 80.5,119.5 67.5,119.5C 66.1667,144.167 66.1667,168.833 67.5,193.5C 74.558,200.554 81.2247,207.888 87.5,215.5C 80.6457,215.176 73.979,215.509 67.5,216.5C 67.3334,238.503 67.5,260.503 68,282.5C 70.8461,290.493 75.6795,296.826 82.5,301.5C 82.369,302.239 82.5357,302.906 83,303.5C 151.639,371.139 219.973,439.139 288,507.5C 288.464,508.094 288.631,508.761 288.5,509.5C 285.059,510.097 281.725,510.763 278.5,511.5C 263.167,511.5 247.833,511.5 232.5,511.5C 142.856,500.612 75.3562,456.279 30,378.5C 13.3053,347.029 3.1386,313.696 -0.5,278.5C -0.5,263.167 -0.5,247.833 -0.5,232.5C 10.3875,142.857 54.7208,75.3573 132.5,30C 163.971,13.3053 197.304,3.1386 232.5,-0.5 Z"/></g>
<g><path style="opacity:1" fill="#fefdfd" d="M 67.5,119.5 C 80.5,119.5 93.5,119.5 106.5,119.5C 106.5,124.833 106.5,130.167 106.5,135.5C 98.5,135.5 90.5,135.5 82.5,135.5C 82.5,139.833 82.5,144.167 82.5,148.5C 89.6476,149.492 96.9809,149.825 104.5,149.5C 104.5,154.167 104.5,158.833 104.5,163.5C 96.9809,163.175 89.6476,163.508 82.5,164.5C 82.5,168.833 82.5,173.167 82.5,177.5C 90.5,177.5 98.5,177.5 106.5,177.5C 106.5,182.5 106.5,187.5 106.5,192.5C 93.5,192.5 80.5,192.5 67.5,192.5C 67.5,168.167 67.5,143.833 67.5,119.5 Z"/></g>
<g><path style="opacity:1" fill="#fefbfb" d="M 153.5,121.5 C 161.636,144.576 169.97,167.576 178.5,190.5C 173.604,192.446 168.271,193.113 162.5,192.5C 160.879,188.257 159.546,183.924 158.5,179.5C 149.808,179.169 141.141,179.502 132.5,180.5C 130.808,184.6 129.141,188.6 127.5,192.5C 121.974,192.821 116.64,192.488 111.5,191.5C 117.637,174.423 123.97,157.423 130.5,140.5C 133.151,133.859 135.818,127.192 138.5,120.5C 143.767,118.977 148.767,119.31 153.5,121.5 Z"/></g>
<g><path style="opacity:1" fill="#fefafa" d="M 236.5,132.5 C 233.446,136.62 229.946,140.287 226,143.5C 222.564,139.862 218.397,137.362 213.5,136C 209.428,135.044 205.595,135.544 202,137.5C 201.192,139.579 201.359,141.579 202.5,143.5C 210.617,146.725 218.617,150.225 226.5,154C 239.229,167.107 238.229,179.107 223.5,190C 205.529,196.511 190.862,192.011 179.5,176.5C 182.543,172.456 186.209,169.123 190.5,166.5C 193.612,169.235 196.612,172.069 199.5,175C 202.536,177.006 205.869,177.84 209.5,177.5C 211.099,177.768 212.432,177.434 213.5,176.5C 218.288,175.877 220.121,173.21 219,168.5C 211.356,163.78 203.189,160.114 194.5,157.5C 191.142,155.3 188.642,152.3 187,148.5C 183.156,136.696 186.656,127.862 197.5,122C 212.632,117.656 225.632,121.156 236.5,132.5 Z"/></g>
<g><path style="opacity:1" fill="#fef9f8" d="M 255.5,122.5 C 255.827,131.682 255.493,140.682 254.5,149.5C 254.167,148.5 253.5,147.833 252.5,147.5C 247.105,138.388 241.438,129.388 235.5,120.5C 241.833,119.167 248.167,119.167 254.5,120.5C 254.863,121.183 255.196,121.85 255.5,122.5 Z"/></g>
<g><path style="opacity:1" fill="#e0dedd" d="M 301.5,120.5 C 293.357,132.768 285.19,145.101 277,157.5C 276.5,169.495 276.333,181.495 276.5,193.5C 271.167,193.5 265.833,193.5 260.5,193.5C 260.667,181.829 260.5,170.162 260,158.5C 258.156,155.472 256.322,152.472 254.5,149.5C 255.493,140.682 255.827,131.682 255.5,122.5C 260.14,128.426 264.307,134.759 268,141.5C 272.957,134.42 277.79,127.253 282.5,120C 289.014,119.18 295.347,119.347 301.5,120.5 Z"/></g>
<g><path style="opacity:1" fill="#c62d18" d="M 130.5,140.5 C 123.97,157.423 117.637,174.423 111.5,191.5C 110.957,191.56 110.624,191.893 110.5,192.5C 116.32,193.816 121.987,193.816 127.5,192.5C 129.141,188.6 130.808,184.6 132.5,180.5C 141.141,179.502 149.808,179.169 158.5,179.5C 159.546,183.924 160.879,188.257 162.5,192.5C 167.975,193.489 173.642,193.822 179.5,193.5C 179.737,192.209 179.404,191.209 178.5,190.5C 169.97,167.576 161.636,144.576 153.5,121.5C 172.5,139.833 191.167,158.5 209.5,177.5C 205.869,177.84 202.536,177.006 199.5,175C 196.612,172.069 193.612,169.235 190.5,166.5C 186.209,169.123 182.543,172.456 179.5,176.5C 190.862,192.011 205.529,196.511 223.5,190C 238.229,179.107 239.229,167.107 226.5,154C 218.617,150.225 210.617,146.725 202.5,143.5C 201.359,141.579 201.192,139.579 202,137.5C 205.595,135.544 209.428,135.044 213.5,136C 218.397,137.362 222.564,139.862 226,143.5C 229.946,140.287 233.446,136.62 236.5,132.5C 241.833,137.5 247.167,142.5 252.5,147.5C 253.5,147.833 254.167,148.5 254.5,149.5C 256.322,152.472 258.156,155.472 260,158.5C 260.5,170.162 260.667,181.829 260.5,193.5C 265.833,193.5 271.167,193.5 276.5,193.5C 276.333,181.495 276.5,169.495 277,157.5C 285.19,145.101 293.357,132.768 301.5,120.5C 307.678,125.331 312.678,130.998 316.5,137.5C 321.5,137.5 326.5,137.5 331.5,137.5C 331.5,156.167 331.5,174.833 331.5,193.5C 337.5,193.5 343.5,193.5 349.5,193.5C 349.5,175.167 349.5,156.833 349.5,138.5C 354.833,138.5 360.167,138.5 365.5,138.5C 365.5,132.5 365.5,126.5 365.5,120.5C 370.172,123.508 374.172,127.175 377.5,131.5C 368.023,143.474 365.856,156.808 371,171.5C 384.277,193.695 402.444,198.862 425.5,187C 441.083,173.743 445.083,157.576 437.5,138.5C 460.299,160.798 482.965,183.298 505.5,206C 506.094,206.464 506.761,206.631 507.5,206.5C 508.846,215.297 510.179,223.963 511.5,232.5C 511.5,247.833 511.5,263.167 511.5,278.5C 500.612,368.144 456.279,435.644 378.5,481C 350.304,496.232 320.304,505.732 288.5,509.5C 288.631,508.761 288.464,508.094 288,507.5C 219.973,439.139 151.639,371.139 83,303.5C 82.5357,302.906 82.369,302.239 82.5,301.5C 99.9344,309.994 115.768,307.661 130,294.5C 133.556,289.722 135.723,284.389 136.5,278.5C 137.497,257.673 137.831,236.673 137.5,215.5C 129.981,215.175 122.648,215.508 115.5,216.5C 115.667,236.836 115.5,257.169 115,277.5C 110.149,284.678 103.649,286.845 95.5,284C 92.5914,282.594 90.5914,280.428 89.5,277.5C 90.1551,256.473 89.4885,235.806 87.5,215.5C 81.2247,207.888 74.558,200.554 67.5,193.5C 80.8333,193.5 94.1667,193.5 107.5,193.5C 107.821,187.974 107.488,182.64 106.5,177.5C 98.5,177.5 90.5,177.5 82.5,177.5C 82.5,173.167 82.5,168.833 82.5,164.5C 90.1667,164.5 97.8333,164.5 105.5,164.5C 105.5,159.167 105.5,153.833 105.5,148.5C 97.8333,148.5 90.1667,148.5 82.5,148.5C 82.5,144.167 82.5,139.833 82.5,135.5C 90.5,135.5 98.5,135.5 106.5,135.5C 107.326,130.684 107.826,125.684 108,120.5C 115.371,127.375 122.871,134.041 130.5,140.5 Z"/></g>
<g><path style="opacity:1" fill="#e0dedd" d="M 364.5,119.5 C 364.5,125.5 364.5,131.5 364.5,137.5C 359.305,137.179 354.305,137.513 349.5,138.5C 349.5,156.833 349.5,175.167 349.5,193.5C 343.5,193.5 337.5,193.5 331.5,193.5C 331.5,174.833 331.5,156.167 331.5,137.5C 326.5,137.5 321.5,137.5 316.5,137.5C 316.5,131.5 316.5,125.5 316.5,119.5C 332.5,119.5 348.5,119.5 364.5,119.5 Z"/></g>
<g><path style="opacity:1" fill="#e0dcdc" d="M 437.5,138.5 C 445.083,157.576 441.083,173.743 425.5,187C 402.444,198.862 384.277,193.695 371,171.5C 365.856,156.808 368.023,143.474 377.5,131.5C 381.618,127.601 386.285,124.435 391.5,122C 410.859,116.522 426.192,122.022 437.5,138.5 Z"/></g>
<g><path style="opacity:1" fill="#d07164" d="M 364.5,119.5 C 365.167,119.5 365.5,119.833 365.5,120.5C 365.5,126.5 365.5,132.5 365.5,138.5C 360.167,138.5 354.833,138.5 349.5,138.5C 354.305,137.513 359.305,137.179 364.5,137.5C 364.5,131.5 364.5,125.5 364.5,119.5 Z"/></g>
<g><path style="opacity:1" fill="#c62f1b" d="M 400.5,137.5 C 416.017,137.515 423.517,145.182 423,160.5C 417.578,174.091 408.078,177.924 394.5,172C 386.187,165.013 384.354,156.513 389,146.5C 392.045,142.406 395.878,139.406 400.5,137.5 Z"/></g>
<g><path style="opacity:1" fill="#f0c7c2" d="M 82.5,148.5 C 90.1667,148.5 97.8333,148.5 105.5,148.5C 105.5,153.833 105.5,159.167 105.5,164.5C 97.8333,164.5 90.1667,164.5 82.5,164.5C 89.6476,163.508 96.9809,163.175 104.5,163.5C 104.5,158.833 104.5,154.167 104.5,149.5C 96.9809,149.825 89.6476,149.492 82.5,148.5 Z"/></g>
<g><path style="opacity:1" fill="#c8341f" d="M 144.5,148.5 C 145.376,148.369 146.043,148.702 146.5,149.5C 147.97,153.912 149.637,158.245 151.5,162.5C 147.555,163.491 143.555,163.824 139.5,163.5C 140.965,158.438 142.632,153.438 144.5,148.5 Z"/></g>
<g><path style="opacity:1" fill="#c7311d" d="M 194.5,157.5 C 203.189,160.114 211.356,163.78 219,168.5C 220.121,173.21 218.288,175.877 213.5,176.5C 207.473,169.806 201.14,163.473 194.5,157.5 Z"/></g>
<g><path style="opacity:1" fill="#efaca3" d="M 67.5,119.5 C 67.5,143.833 67.5,168.167 67.5,192.5C 80.5,192.5 93.5,192.5 106.5,192.5C 106.5,187.5 106.5,182.5 106.5,177.5C 107.488,182.64 107.821,187.974 107.5,193.5C 94.1667,193.5 80.8333,193.5 67.5,193.5C 66.1667,168.833 66.1667,144.167 67.5,119.5 Z"/></g>
<g><path style="opacity:1" fill="#eab2aa" d="M 111.5,191.5 C 116.64,192.488 121.974,192.821 127.5,192.5C 121.987,193.816 116.32,193.816 110.5,192.5C 110.624,191.893 110.957,191.56 111.5,191.5 Z"/></g>
<g><path style="opacity:1" fill="#ecb8b1" d="M 178.5,190.5 C 179.404,191.209 179.737,192.209 179.5,193.5C 173.642,193.822 167.975,193.489 162.5,192.5C 168.271,193.113 173.604,192.446 178.5,190.5 Z"/></g>
<g><path style="opacity:1" fill="#fedf28" d="M 67.5,216.5 C 74.5,216.5 81.5,216.5 88.5,216.5C 88.1695,237.007 88.5028,257.34 89.5,277.5C 90.5914,280.428 92.5914,282.594 95.5,284C 103.649,286.845 110.149,284.678 115,277.5C 115.5,257.169 115.667,236.836 115.5,216.5C 122.5,216.5 129.5,216.5 136.5,216.5C 136.5,237.167 136.5,257.833 136.5,278.5C 135.723,284.389 133.556,289.722 130,294.5C 115.768,307.661 99.9344,309.994 82.5,301.5C 75.6795,296.826 70.8461,290.493 68,282.5C 67.5,260.503 67.3334,238.503 67.5,216.5 Z"/></g>
<g><path style="opacity:1" fill="#e58d21" d="M 115.5,216.5 C 122.648,215.508 129.981,215.175 137.5,215.5C 137.831,236.673 137.497,257.673 136.5,278.5C 136.5,257.833 136.5,237.167 136.5,216.5C 129.5,216.5 122.5,216.5 115.5,216.5 Z"/></g>
<g><path style="opacity:1" fill="#fede28" d="M 171.5,216.5 C 189.05,214.447 203.717,219.947 215.5,233C 210.965,238.532 206.131,243.699 201,248.5C 195.922,243.759 190.089,240.259 183.5,238C 179.495,236.902 175.995,237.735 173,240.5C 172.219,241.944 172.386,243.277 173.5,244.5C 183.076,248.189 192.41,252.356 201.5,257C 217.446,271.588 217.446,286.255 201.5,301C 177.664,311.957 157.997,306.79 142.5,285.5C 147.336,280.164 152.503,275.164 158,270.5C 161.204,273.369 164.037,276.535 166.5,280C 171.781,284.317 177.781,285.983 184.5,285C 190.473,283.448 192.14,280.114 189.5,275C 178.88,270.907 168.547,266.241 158.5,261C 147.579,248.051 147.912,235.384 159.5,223C 163.2,220.098 167.2,217.932 171.5,216.5 Z"/></g>
<g><path style="opacity:1" fill="#fedf28" d="M 223.5,216.5 C 234.167,216.5 244.833,216.5 255.5,216.5C 255.5,223.5 255.5,230.5 255.5,237.5C 251.958,237.187 248.625,237.521 245.5,238.5C 245.5,242.5 245.5,246.5 245.5,250.5C 248.833,250.5 252.167,250.5 255.5,250.5C 255.5,257.833 255.5,265.167 255.5,272.5C 252.167,272.5 248.833,272.5 245.5,272.5C 245.5,276.5 245.5,280.5 245.5,284.5C 248.625,285.479 251.958,285.813 255.5,285.5C 255.5,292.5 255.5,299.5 255.5,306.5C 244.833,306.5 234.167,306.5 223.5,306.5C 223.5,276.5 223.5,246.5 223.5,216.5 Z"/></g>
<g><path style="opacity:1" fill="#fab21f" d="M 223.5,216.5 C 240.659,215.503 257.992,215.17 275.5,215.5C 275.814,223.087 275.481,230.587 274.5,238C 264.839,238.5 255.172,238.666 245.5,238.5C 248.625,237.521 251.958,237.187 255.5,237.5C 255.5,230.5 255.5,223.5 255.5,216.5C 244.833,216.5 234.167,216.5 223.5,216.5 Z"/></g>
<g><path style="opacity:1" fill="#fed9ad" d="M 403.5,263.5 C 395.992,270.174 388.992,277.341 382.5,285C 388.659,291.992 394.992,298.825 401.5,305.5C 379.167,328.167 356.833,350.833 334.5,373.5C 320.5,360.167 306.833,346.5 293.5,332.5C 296.796,328.702 300.296,325.036 304,321.5C 309.936,313.418 311.936,304.418 310,294.5C 307.088,279.938 303.921,265.438 300.5,251C 302.836,242.854 308.169,240.187 316.5,243C 325.699,245.53 332.532,251.03 337,259.5C 340.666,265.83 343.499,272.497 345.5,279.5C 366.32,259.181 386.986,238.681 407.5,218C 423.665,213.835 430.831,220.002 429,236.5C 420.661,245.671 412.161,254.671 403.5,263.5 Z"/></g>
<g><path style="opacity:1" fill="#e17821" d="M 67.5,216.5 C 73.979,215.509 80.6457,215.176 87.5,215.5C 89.4885,235.806 90.1551,256.473 89.5,277.5C 88.5028,257.34 88.1695,237.007 88.5,216.5C 81.5,216.5 74.5,216.5 67.5,216.5 Z"/></g>
<g><path style="opacity:1" fill="#ffba1e" d="M 255.5,250.5 C 261.167,250.5 266.833,250.5 272.5,250.5C 272.5,257.833 272.5,265.167 272.5,272.5C 266.833,272.5 261.167,272.5 255.5,272.5C 255.5,265.167 255.5,257.833 255.5,250.5 Z"/></g>
<g><path style="opacity:1" fill="#feb884" d="M 422.5,286.5 C 415.227,292.435 408.227,298.768 401.5,305.5C 394.992,298.825 388.659,291.992 382.5,285C 388.992,277.341 395.992,270.174 403.5,263.5C 410.108,261.611 415.941,262.944 421,267.5C 425.434,273.541 425.6,279.708 421.5,286C 421.728,286.399 422.062,286.565 422.5,286.5 Z"/></g>
<g><path style="opacity:1" fill="#fbb21f" d="M 245.5,284.5 C 255.172,284.334 264.839,284.5 274.5,285C 275.481,292.413 275.814,299.913 275.5,307.5C 257.992,307.83 240.659,307.497 223.5,306.5C 234.167,306.5 244.833,306.5 255.5,306.5C 255.5,299.5 255.5,292.5 255.5,285.5C 251.958,285.813 248.625,285.479 245.5,284.5 Z"/></g>
<g><path style="opacity:1" fill="#fec898" d="M 440.5,310.5 C 434.776,315.721 429.109,321.221 423.5,327C 430.761,333.756 437.428,340.922 443.5,348.5C 431.339,361.494 418.672,373.994 405.5,386C 397.863,390.652 389.53,392.652 380.5,392C 375.043,395.625 370.043,399.791 365.5,404.5C 355.167,394.5 344.833,384.5 334.5,374.5C 334.5,374.167 334.5,373.833 334.5,373.5C 356.833,350.833 379.167,328.167 401.5,305.5C 408.227,298.768 415.227,292.435 422.5,286.5C 434.123,283.974 441.123,288.474 443.5,300C 443.186,303.767 442.186,307.267 440.5,310.5 Z"/></g>
<g><path style="opacity:1" fill="#feb783" d="M 443.5,348.5 C 437.428,340.922 430.761,333.756 423.5,327C 429.109,321.221 434.776,315.721 440.5,310.5C 452.183,307.5 459.183,311.833 461.5,323.5C 461.28,327.995 459.78,331.995 457,335.5C 452.631,340.037 448.131,344.37 443.5,348.5 Z"/></g>
<g><path style="opacity:1" fill="#81d161" d="M 293.5,332.5 C 306.833,346.5 320.5,360.167 334.5,373.5C 334.5,373.833 334.5,374.167 334.5,374.5C 333.761,374.369 333.094,374.536 332.5,375C 316.632,391.035 300.632,406.868 284.5,422.5C 267.854,406.521 251.521,390.188 235.5,373.5C 251.653,357.847 267.653,342.014 283.5,326C 284.167,325.333 284.833,325.333 285.5,326C 287.771,328.782 290.437,330.949 293.5,332.5 Z"/></g>
<g><path style="opacity:1" fill="#0db764" d="M 334.5,374.5 C 344.833,384.5 355.167,394.5 365.5,404.5C 367.795,407.297 370.295,409.964 373,412.5C 373.667,413.167 373.667,413.833 373,414.5C 356.986,430.681 340.819,446.681 324.5,462.5C 310.812,449.479 297.479,436.146 284.5,422.5C 300.632,406.868 316.632,391.035 332.5,375C 333.094,374.536 333.761,374.369 334.5,374.5 Z"/></g>
</svg>
