<svg version="1.1" id="Layer_1" xmlns="http://www.w3.org/2000/svg" xmlns:xlink="http://www.w3.org/1999/xlink" x="0px" y="0px"
	 width="100%" viewBox="0 0 512 512" enable-background="new 0 0 512 512" xml:space="preserve">
<path fill="#EF4D37" opacity="1.000000" stroke="none" 
	d="
M225.000000,1.000003 
	C246.020889,1.000000 267.041779,1.000000 288.325989,1.396263 
	C289.599121,2.193875 290.576355,2.789405 291.624023,2.965219 
	C298.693634,4.151594 305.881165,4.812290 312.839203,6.454050 
	C337.496399,12.271957 361.113953,20.816654 383.169769,33.541172 
	C400.673218,43.639320 417.077911,55.169079 431.610626,69.209549 
	C438.630768,75.991867 445.253723,83.198853 451.854980,90.398331 
	C464.716003,104.424881 475.068115,120.266327 483.932068,137.003815 
	C495.783752,159.382889 504.186127,183.070755 508.545898,207.945435 
	C506.699799,206.613937 505.072266,205.461502 503.680664,204.072632 
	C484.174530,184.604492 464.725311,165.079178 445.171143,145.659546 
	C443.631012,144.130020 441.414886,143.281128 439.616119,142.025604 
	C439.719299,141.935272 439.939331,142.098969 439.880463,141.761017 
	C439.354523,140.945358 438.887451,140.467621 438.172913,139.800903 
	C433.812866,135.358643 430.284088,130.233582 425.478424,127.015076 
	C410.900696,117.251938 393.943237,119.740189 379.012268,132.627838 
	C374.853577,128.869873 370.797913,125.436920 366.399475,121.794220 
	C350.202087,121.584473 334.347504,121.584473 317.755280,121.584473 
	C317.755280,126.475601 317.755280,131.236282 317.494812,135.810394 
	C312.469025,131.067230 307.703766,126.510643 302.678131,121.622398 
	C297.119202,121.199608 291.812012,120.912384 286.527618,121.144638 
	C285.066284,121.208870 283.245148,122.507751 282.324646,123.774628 
	C278.921570,128.458221 275.826263,133.365463 272.314026,138.064606 
	C268.576233,135.352692 265.139709,132.764786 261.749023,130.152924 
	C261.794861,130.128952 261.835144,130.224243 261.880585,129.849487 
	C261.166077,128.678253 260.406097,127.881798 259.400024,126.919342 
	C258.426544,125.839272 257.699249,124.925186 256.825928,123.663406 
	C255.659409,122.602020 254.661316,121.312172 253.614639,121.271439 
	C248.242722,121.062370 242.858307,121.174629 236.643600,121.174629 
	C241.932831,129.565628 246.740067,137.191971 251.172272,144.860626 
	C249.087555,143.683334 247.328674,142.526291 245.679260,141.229980 
	C242.984528,139.112152 240.361099,136.903549 237.609695,134.437637 
	C231.017822,126.709381 222.837997,122.424171 213.061951,121.309593 
	C202.272354,120.079460 191.735565,125.962029 188.260529,134.985641 
	C184.785004,144.010513 187.731186,152.178070 197.015945,159.350327 
	C198.462372,161.320969 199.714615,163.064056 201.201569,164.576401 
	C205.815536,169.269150 210.518661,173.874252 214.874176,178.685516 
	C213.386017,178.887619 212.210861,178.917587 210.871857,178.658783 
	C192.917496,160.536697 175.133759,142.696609 157.314072,124.892525 
	C156.520615,124.099777 155.400055,123.634430 154.221756,122.722794 
	C151.026917,122.008133 148.036331,121.624596 145.058990,121.156654 
	C141.578354,120.609604 139.735321,121.934669 138.580185,125.405785 
	C136.701416,131.051422 134.215317,136.494949 131.698334,141.854889 
	C123.841507,135.131134 116.271889,128.576279 108.369217,121.798187 
	C95.029564,121.574959 82.022964,121.574959 68.551498,121.574959 
	C68.551498,123.619446 68.551498,125.416481 68.551498,127.213524 
	C68.551476,145.634232 68.522934,164.055023 68.573303,182.475601 
	C68.584610,186.609009 68.871918,190.741638 69.191818,195.171021 
	C70.814285,197.045670 72.285141,198.616562 73.738434,200.203537 
	C78.870644,205.807846 83.996834,211.417664 88.650894,217.114258 
	C83.357307,217.235077 78.525116,217.498550 73.722923,217.228561 
	C69.597198,216.996628 68.243599,218.460022 68.294830,222.608002 
	C68.489792,238.395279 68.673599,254.193924 68.280006,269.973816 
	C67.946465,283.346191 71.666451,294.512695 83.178688,302.703735 
	C83.941856,303.318268 84.507477,303.658173 85.032303,304.002808 
	C84.991516,304.007538 84.981522,303.925995 85.122482,304.141876 
	C85.532082,304.567505 85.800713,304.777252 86.030167,304.959106 
	C85.990974,304.931244 86.044174,304.851135 86.081619,305.199158 
	C87.458817,307.212341 88.652260,309.025024 90.160118,310.520721 
	C115.209244,335.367310 140.371552,360.100189 165.360809,385.006683 
	C206.039124,425.550323 246.611465,466.200317 287.220184,506.813812 
	C288.512024,508.105835 289.711609,509.490082 290.554138,510.910278 
	C289.769348,511.659485 289.384674,512.329773 289.000000,513.000000 
	C267.979095,513.000000 246.958206,513.000000 225.674896,512.604736 
	C224.735214,511.815948 224.102295,511.215729 223.374130,511.059418 
	C209.240509,508.025909 194.931580,505.654083 180.993851,501.901428 
	C162.524323,496.928619 144.856415,489.442810 128.771072,479.106415 
	C114.114929,469.688385 99.848618,459.497864 86.362999,448.481781 
	C77.179642,440.980133 69.421516,431.664886 61.410568,422.812653 
	C48.868214,408.953156 38.664536,393.376312 30.033813,376.861755 
	C15.892536,349.803009 6.182580,321.268555 2.905376,290.737671 
	C2.836676,290.097656 1.659865,289.576569 0.999999,289.000000 
	C1.000000,267.645782 1.000000,246.291550 1.390095,224.682037 
	C2.177153,223.750534 2.780347,223.119675 2.940523,222.391373 
	C5.941601,208.745987 8.329432,194.936966 11.981438,181.470230 
	C17.419634,161.416916 26.317854,142.785141 36.951935,124.914429 
	C52.107136,99.445923 71.425041,77.521675 94.055313,58.683666 
	C112.131264,43.636780 132.078964,31.254869 153.859909,21.983084 
	C176.000763,12.558092 198.778030,5.620151 222.763962,2.918819 
	C223.571106,2.827918 224.257385,1.663848 225.000000,1.000003 
z"/>
<path fill="#C62D19" opacity="1.000000" stroke="none" 
	d="
M290.954224,510.831329 
	C289.711609,509.490082 288.512024,508.105835 287.220184,506.813812 
	C246.611465,466.200317 206.039124,425.550323 165.360809,385.006683 
	C140.371552,360.100189 115.209244,335.367310 90.160118,310.520721 
	C88.652260,309.025024 87.458817,307.212341 86.465958,305.188110 
	C88.360085,305.435303 89.890221,306.090332 91.457169,306.640503 
	C112.501625,314.029480 136.727249,300.273804 138.117035,278.932709 
	C139.380478,259.531830 138.581406,239.994171 138.532043,220.517212 
	C138.529434,219.488159 137.073853,217.605911 136.236618,217.572449 
	C129.961777,217.321518 123.672325,217.435852 116.823738,217.435852 
	C116.823738,219.838074 116.823784,221.627914 116.823738,223.417755 
	C116.823318,239.902344 116.843323,256.386963 116.814011,272.871521 
	C116.798943,281.346466 111.536339,286.762848 103.381432,286.810822 
	C95.609558,286.856537 90.306793,281.378754 90.288071,273.134155 
	C90.249886,256.316650 90.312141,239.498795 90.224922,222.681625 
	C90.215134,220.794357 89.508690,218.910721 89.125305,217.025391 
	C83.996834,211.417664 78.870644,205.807846 73.738434,200.203537 
	C72.285141,198.616562 70.814285,197.045670 69.657372,195.141617 
	C82.682961,194.815842 95.402657,194.815842 108.157181,194.815842 
	C108.157181,189.129120 108.157181,184.226288 108.157181,178.958923 
	C100.042297,178.958923 92.279236,178.958923 84.296623,178.958923 
	C84.296623,174.513870 84.296623,170.444412 84.296623,165.691833 
	C91.844406,165.691833 99.203011,165.691833 106.384079,165.691833 
	C106.384079,160.105209 106.384079,155.210388 106.384079,149.847992 
	C98.741844,149.847992 91.508369,149.847992 84.402695,149.847992 
	C84.402695,145.279907 84.402695,141.209488 84.402695,136.759583 
	C92.488205,136.759583 100.241890,136.759583 108.702271,136.759583 
	C108.702271,131.594528 108.702271,126.807983 108.702271,122.021423 
	C116.271889,128.576279 123.841507,135.131134 131.698944,142.224609 
	C125.506668,159.904419 119.026550,177.045609 112.462791,194.408035 
	C128.295349,195.766006 128.292221,195.764679 134.035553,182.155991 
	C134.208054,181.747223 134.603821,181.432678 134.950195,181.006943 
	C139.324005,181.006943 143.651108,181.006943 147.978210,181.006943 
	C159.026917,181.006943 158.976578,181.027756 163.206192,191.256866 
	C163.758652,192.593002 165.075424,194.499252 166.154114,194.579315 
	C171.008163,194.939606 175.904007,194.736450 181.333069,194.736450 
	C172.156113,170.270279 163.293991,146.643433 154.431870,123.016586 
	C155.400055,123.634430 156.520615,124.099777 157.314072,124.892525 
	C175.133759,142.696609 192.917496,160.536697 210.469711,178.719940 
	C201.806915,179.120682 196.966858,173.136047 191.875717,167.469757 
	C187.859283,171.169418 184.258392,174.486313 180.737350,177.729660 
	C188.170395,187.841934 197.339737,193.750641 209.469315,194.679367 
	C221.781586,195.622086 233.381699,188.131836 236.075150,177.325928 
	C238.787796,166.443024 233.110672,157.027573 220.588898,151.751129 
	C215.998047,149.816650 211.246750,148.223770 206.794632,146.018753 
	C205.038681,145.149094 203.899261,143.034607 202.479095,141.486954 
	C204.284790,139.996887 205.892059,137.657654 207.934418,137.180450 
	C213.440231,135.893982 218.404816,137.913742 222.769348,141.365723 
	C224.530884,142.758972 226.235275,144.224472 227.998001,145.683853 
	C231.548126,141.679977 234.627853,138.206619 237.707581,134.733246 
	C240.361099,136.903549 242.984528,139.112152 245.679260,141.229980 
	C247.328674,142.526291 249.087555,143.683334 251.310822,144.986359 
	C251.979736,145.285034 252.044189,145.524750 252.055450,146.140625 
	C252.575912,146.964783 253.058670,147.437271 253.748169,148.131012 
	C254.957214,149.616089 255.959518,150.879883 256.985840,152.492523 
	C261.150970,157.837326 262.394135,163.566589 261.791534,169.959564 
	C261.418549,173.916687 261.673309,177.933792 261.662903,181.924026 
	C261.651855,186.161316 261.660431,190.398621 261.660431,194.560089 
	C267.495728,194.560089 272.540131,194.560089 277.954346,194.560089 
	C277.954346,184.040085 277.872498,173.917572 278.023285,163.798508 
	C278.053528,161.768890 278.488617,159.445572 279.553284,157.779114 
	C287.230438,145.762085 295.117767,133.879349 302.938477,121.954041 
	C307.703766,126.510643 312.469025,131.067230 317.568420,136.255722 
	C319.020172,137.667419 320.093048,139.029572 321.263763,139.119614 
	C325.020844,139.408478 328.814087,139.226990 333.150696,139.226990 
	C333.150696,157.986847 333.150696,176.172653 333.150696,194.383636 
	C339.435120,194.383636 345.134796,194.383636 351.249146,194.383636 
	C351.249146,175.919006 351.249146,157.853912 351.249146,139.299728 
	C356.418243,139.299728 361.176819,139.299728 366.742218,139.299728 
	C366.742218,133.215378 366.742218,127.609673 366.742218,122.003967 
	C370.797913,125.436920 374.853577,128.869873 378.854187,132.940216 
	C365.530243,149.759293 366.558411,171.086792 381.271667,184.867722 
	C395.252167,197.962341 417.173340,198.153458 431.120605,184.754745 
	C443.694611,172.675323 445.817383,158.121857 439.512939,142.115921 
	C441.414886,143.281128 443.631012,144.130020 445.171143,145.659546 
	C464.725311,165.079178 484.174530,184.604492 503.680664,204.072632 
	C505.072266,205.461502 506.699799,206.613937 508.614227,208.357895 
	C509.701691,213.744003 510.337524,218.657776 511.157166,223.540695 
	C511.253387,224.114075 512.361145,224.517685 513.000000,225.000000 
	C513.000000,246.020889 513.000000,267.041779 512.582886,288.448547 
	C511.807068,289.344360 511.218689,289.815186 511.124084,290.370178 
	C509.723297,298.588867 508.800201,306.912079 506.962585,315.029114 
	C500.559204,343.314056 489.560608,369.743195 473.979919,394.230591 
	C459.968658,416.251404 442.799744,435.488464 423.073090,452.559296 
	C408.992493,464.744171 393.636658,475.032257 377.336517,483.857635 
	C359.459381,493.536957 340.526306,500.810028 320.762390,505.577362 
	C310.973450,507.938599 300.899323,509.117493 290.954224,510.831329 
M256.096344,286.690399 
	C253.200684,286.690399 250.305008,286.690399 247.386292,286.690399 
	C247.386292,282.033600 247.386292,278.293976 247.386292,273.849152 
	C250.774094,273.849152 253.867722,273.849152 257.895630,273.972626 
	C261.858795,273.991333 265.828430,273.878326 269.783081,274.071198 
	C272.843353,274.220520 274.374512,273.373444 274.214294,269.966522 
	C273.997253,265.352661 273.999115,260.713379 274.214722,256.099365 
	C274.371765,252.738968 272.940735,251.796814 269.830536,251.961319 
	C265.548370,252.187775 261.250122,252.110397 256.058990,252.044083 
	C253.171539,252.044083 250.284088,252.044083 247.403137,252.044083 
	C247.403137,247.424118 247.403137,243.705185 247.403137,239.335922 
	C250.810028,239.335922 253.905197,239.335922 257.729340,239.694016 
	C262.712219,239.756516 267.696899,239.757706 272.677216,239.906387 
	C275.316956,239.985214 276.758514,239.110947 276.717987,236.243835 
	C276.645172,231.091675 276.925171,225.920853 276.543671,220.796112 
	C276.445648,219.479538 274.477631,217.296799 273.285431,217.239319 
	C267.833496,216.976471 262.351959,217.327805 255.962753,217.390198 
	C245.863098,217.390198 235.763428,217.390198 225.370895,217.390198 
	C225.370895,248.002029 225.370895,278.005371 225.370895,308.607849 
	C236.041351,308.607849 246.466019,308.607849 257.814453,308.856049 
	C262.796875,308.895905 267.781677,308.856842 272.760742,309.007538 
	C275.411316,309.087769 276.810059,308.280060 276.750549,305.378815 
	C276.644928,300.231049 276.911072,295.067596 276.588257,289.937958 
	C276.506012,288.630829 274.828583,286.379303 273.828003,286.347900 
	C268.227753,286.172119 262.610382,286.543854 256.096344,286.690399 
M287.106232,425.358154 
	C300.040283,438.278656 312.974304,451.199158 325.624298,463.835938 
	C342.088745,447.355164 358.279266,431.148560 374.695038,414.716492 
	C372.351654,412.213226 369.645111,409.322052 367.586792,405.967255 
	C369.006653,404.566742 370.565704,403.280212 371.821960,401.745789 
	C376.987976,395.435822 383.193390,392.246735 391.734619,392.653442 
	C398.914246,392.995331 405.303375,389.652832 410.459503,384.516724 
	C422.000397,373.020599 433.468658,361.451569 445.556335,349.618042 
	C450.203247,344.901917 455.026489,340.344330 459.448151,335.425720 
	C463.985138,330.378815 464.382843,323.496887 460.984192,317.902496 
	C457.853668,312.749512 451.708527,310.084656 445.568420,311.235840 
	C444.275269,311.478271 442.993744,311.782593 441.943909,311.337921 
	C446.268005,303.786469 445.988922,297.308929 441.114258,292.083130 
	C435.899506,286.492737 430.125854,285.530273 422.847290,288.154663 
	C423.129944,287.561096 423.408051,286.965332 423.695892,286.374298 
	C429.296448,274.875275 422.942627,264.334442 410.240204,263.959198 
	C409.057129,263.924225 407.890228,263.341431 407.257904,262.586029 
	C413.734833,256.113159 420.203888,249.632446 426.691833,243.170624 
	C430.057953,239.818039 431.884094,235.827393 431.441528,231.048325 
	C430.886658,225.056610 427.834229,220.638779 422.162903,218.547668 
	C415.952881,216.257965 410.438354,217.741531 405.728638,222.463257 
	C387.621674,240.616623 369.454285,258.709778 351.391052,276.906433 
	C350.143250,278.163452 349.563568,280.083618 348.673157,281.695374 
	C348.055389,281.245972 347.437622,280.796570 346.819855,280.347137 
	C346.212616,278.676666 345.799774,276.901276 344.964844,275.353607 
	C341.120850,268.228363 337.725098,260.766113 333.076721,254.197372 
	C328.632111,247.916565 321.834351,244.476562 313.957703,243.649155 
	C305.668152,242.778397 301.273102,247.374390 302.899719,255.654465 
	C305.655884,269.684387 308.648163,283.667725 311.493713,297.680298 
	C313.561432,307.862366 311.171661,316.808258 303.871307,324.325592 
	C300.742035,327.547852 297.594360,330.752258 293.893372,333.559326 
	C291.252686,331.137909 288.612030,328.716522 286.636749,326.905243 
	C270.155457,343.386749 254.077774,359.464600 237.625290,375.917267 
	C253.702972,391.940704 270.176971,408.359131 287.106232,425.358154 
M177.663422,286.062195 
	C171.425629,281.921906 165.187820,277.781647 158.333450,273.232147 
	C154.134247,277.039093 148.997116,281.696381 143.910294,286.308044 
	C153.096329,300.131989 165.004578,307.213684 180.886124,308.524902 
	C196.265045,309.794586 210.654526,300.091461 214.072220,286.146820 
	C217.348404,272.779633 210.012833,260.544769 194.867035,254.121002 
	C193.947845,253.731140 193.019669,253.362198 192.092590,252.991196 
	C187.304245,251.074921 182.459122,249.285294 177.758957,247.173019 
	C176.295563,246.515366 175.223526,244.986877 173.972351,243.857056 
	C175.448303,242.505402 176.710907,240.456650 178.438690,239.927856 
	C184.544281,238.059280 189.866043,240.508255 194.731216,244.019928 
	C197.516403,246.030258 200.117142,248.296127 203.112625,250.696762 
	C207.857452,245.016663 212.274338,239.729156 216.954605,234.126358 
	C213.449265,231.193329 210.584976,228.385452 207.329330,226.146729 
	C195.768539,218.197083 183.304749,214.756668 169.548553,219.725967 
	C159.092422,223.503128 152.330750,232.616455 151.982285,242.988312 
	C151.613098,253.976944 157.078873,262.153229 168.109116,266.894653 
	C172.846756,268.931152 177.685699,270.730804 182.448090,272.711487 
	C184.900558,273.731445 187.443054,274.664398 189.668549,276.073181 
	C194.050537,278.847046 194.168030,282.721313 189.479767,284.766388 
	C186.216431,286.189941 182.161118,285.797974 177.663422,286.062195 
z"/>
<path fill="#000000" opacity="1.000000" stroke="none" 
	d="
M513.000000,224.531342 
	C512.361145,224.517685 511.253387,224.114075 511.157166,223.540695 
	C510.337524,218.657776 509.701691,213.744003 508.942505,208.427017 
	C504.186127,183.070755 495.783752,159.382889 483.932068,137.003815 
	C475.068115,120.266327 464.716003,104.424881 451.854980,90.398331 
	C445.253723,83.198853 438.630768,75.991867 431.610626,69.209549 
	C417.077911,55.169079 400.673218,43.639320 383.169769,33.541172 
	C361.113953,20.816654 337.496399,12.271957 312.839203,6.454050 
	C305.881165,4.812290 298.693634,4.151594 291.624023,2.965219 
	C290.576355,2.789405 289.599121,2.193875 288.794647,1.396263 
	C363.593719,1.000000 438.187408,1.000000 513.000000,1.000000 
	C513.000000,75.354088 513.000000,149.708389 513.000000,224.531342 
z"/>
<path fill="#000000" opacity="1.000000" stroke="none" 
	d="
M0.999999,289.468658 
	C1.659865,289.576569 2.836676,290.097656 2.905376,290.737671 
	C6.182580,321.268555 15.892536,349.803009 30.033813,376.861755 
	C38.664536,393.376312 48.868214,408.953156 61.410568,422.812653 
	C69.421516,431.664886 77.179642,440.980133 86.362999,448.481781 
	C99.848618,459.497864 114.114929,469.688385 128.771072,479.106415 
	C144.856415,489.442810 162.524323,496.928619 180.993851,501.901428 
	C194.931580,505.654083 209.240509,508.025909 223.374130,511.059418 
	C224.102295,511.215729 224.735214,511.815948 225.206238,512.604736 
	C150.406296,513.000000 75.812599,513.000000 1.000000,513.000000 
	C1.000000,438.645905 1.000000,364.291626 0.999999,289.468658 
z"/>
<path fill="#000000" opacity="1.000000" stroke="none" 
	d="
M290.554138,510.910278 
	C300.899323,509.117493 310.973450,507.938599 320.762390,505.577362 
	C340.526306,500.810028 359.459381,493.536957 377.336517,483.857635 
	C393.636658,475.032257 408.992493,464.744171 423.073090,452.559296 
	C442.799744,435.488464 459.968658,416.251404 473.979919,394.230591 
	C489.560608,369.743195 500.559204,343.314056 506.962585,315.029114 
	C508.800201,306.912079 509.723297,298.588867 511.124084,290.370178 
	C511.218689,289.815186 511.807068,289.344360 512.582886,288.917175 
	C513.000000,363.593719 513.000000,438.187408 513.000000,513.000000 
	C438.645905,513.000000 364.291626,513.000000 289.468658,513.000000 
	C289.384674,512.329773 289.769348,511.659485 290.554138,510.910278 
z"/>
<path fill="#000000" opacity="1.000000" stroke="none" 
	d="
M224.531342,1.000003 
	C224.257385,1.663848 223.571106,2.827918 222.763962,2.918819 
	C198.778030,5.620151 176.000763,12.558092 153.859909,21.983084 
	C132.078964,31.254869 112.131264,43.636780 94.055313,58.683666 
	C71.425041,77.521675 52.107136,99.445923 36.951935,124.914429 
	C26.317854,142.785141 17.419634,161.416916 11.981438,181.470230 
	C8.329432,194.936966 5.941601,208.745987 2.940523,222.391373 
	C2.780347,223.119675 2.177153,223.750534 1.390095,224.213379 
	C1.000000,149.739456 1.000000,75.478920 1.000000,1.000000 
	C75.354088,1.000000 149.708389,1.000000 224.531342,1.000003 
z"/>
<path fill="#FEDD29" opacity="1.000000" stroke="none" 
	d="
M88.650894,217.114258 
	C89.508690,218.910721 90.215134,220.794357 90.224922,222.681625 
	C90.312141,239.498795 90.249886,256.316650 90.288071,273.134155 
	C90.306793,281.378754 95.609558,286.856537 103.381432,286.810822 
	C111.536339,286.762848 116.798943,281.346466 116.814011,272.871521 
	C116.843323,256.386963 116.823318,239.902344 116.823738,223.417755 
	C116.823784,221.627914 116.823738,219.838074 116.823738,217.435852 
	C123.672325,217.435852 129.961777,217.321518 136.236618,217.572449 
	C137.073853,217.605911 138.529434,219.488159 138.532043,220.517212 
	C138.581406,239.994171 139.380478,259.531830 138.117035,278.932709 
	C136.727249,300.273804 112.501625,314.029480 91.457169,306.640503 
	C89.890221,306.090332 88.360085,305.435303 86.428513,304.840088 
	C86.044174,304.851135 85.990974,304.931244 85.999847,304.670349 
	C85.666313,304.248322 85.323914,304.087158 84.981522,303.925995 
	C84.981522,303.925995 84.991516,304.007538 84.842911,303.729004 
	C84.123260,303.110016 83.552200,302.769531 82.981140,302.429077 
	C71.666451,294.512695 67.946465,283.346191 68.280006,269.973816 
	C68.673599,254.193924 68.489792,238.395279 68.294830,222.608002 
	C68.243599,218.460022 69.597198,216.996628 73.722923,217.228561 
	C78.525116,217.498550 83.357307,217.235077 88.650894,217.114258 
z"/>
<path fill="#E0DDDD" opacity="1.000000" stroke="none" 
	d="
M439.616119,142.025604 
	C445.817383,158.121857 443.694611,172.675323 431.120605,184.754745 
	C417.173340,198.153458 395.252167,197.962341 381.271667,184.867722 
	C366.558411,171.086792 365.530243,149.759293 378.957214,133.265228 
	C393.943237,119.740189 410.900696,117.251938 425.478424,127.015076 
	C430.284088,130.233582 433.812866,135.358643 438.275757,140.136307 
	C439.063751,141.140121 439.501556,141.619537 439.939331,142.098969 
	C439.939331,142.098969 439.719299,141.935272 439.616119,142.025604 
M424.618713,160.852570 
	C425.560120,153.228882 422.961182,147.039536 416.693359,142.667526 
	C410.749176,138.521286 404.274963,138.166992 397.778717,141.355972 
	C390.064453,145.142807 386.156067,153.785797 388.064453,162.355240 
	C389.835938,170.309830 397.375732,176.389618 405.785278,176.644638 
	C414.567566,176.910950 421.742920,171.132095 424.618713,160.852570 
z"/>
<path fill="#FEFBFB" opacity="1.000000" stroke="none" 
	d="
M154.221756,122.722794 
	C163.293991,146.643433 172.156113,170.270279 181.333069,194.736450 
	C175.904007,194.736450 171.008163,194.939606 166.154114,194.579315 
	C165.075424,194.499252 163.758652,192.593002 163.206192,191.256866 
	C158.976578,181.027756 159.026917,181.006943 147.978210,181.006943 
	C143.651108,181.006943 139.324005,181.006943 134.950195,181.006943 
	C134.603821,181.432678 134.208054,181.747223 134.035553,182.155991 
	C128.292221,195.764679 128.295349,195.766006 112.462791,194.408035 
	C119.026550,177.045609 125.506668,159.904419 131.986160,142.393509 
	C134.215317,136.494949 136.701416,131.051422 138.580185,125.405785 
	C139.735321,121.934669 141.578354,120.609604 145.058990,121.156654 
	C148.036331,121.624596 151.026917,122.008133 154.221756,122.722794 
M151.416260,160.129868 
	C150.039337,156.538498 148.662399,152.947144 146.863251,148.254532 
	C144.507980,154.523407 142.627289,159.529144 140.618851,164.874878 
	C145.026566,164.874878 148.875305,164.874878 153.021698,164.874878 
	C152.536423,163.317963 152.152649,162.086685 151.416260,160.129868 
z"/>
<path fill="#FEFBFB" opacity="1.000000" stroke="none" 
	d="
M237.609695,134.437637 
	C234.627853,138.206619 231.548126,141.679977 227.998001,145.683853 
	C226.235275,144.224472 224.530884,142.758972 222.769348,141.365723 
	C218.404816,137.913742 213.440231,135.893982 207.934418,137.180450 
	C205.892059,137.657654 204.284790,139.996887 202.479095,141.486954 
	C203.899261,143.034607 205.038681,145.149094 206.794632,146.018753 
	C211.246750,148.223770 215.998047,149.816650 220.588898,151.751129 
	C233.110672,157.027573 238.787796,166.443024 236.075150,177.325928 
	C233.381699,188.131836 221.781586,195.622086 209.469315,194.679367 
	C197.339737,193.750641 188.170395,187.841934 180.737350,177.729660 
	C184.258392,174.486313 187.859283,171.169418 191.875717,167.469757 
	C196.966858,173.136047 201.806915,179.120682 210.633545,179.008713 
	C212.210861,178.917587 213.386017,178.887619 215.235504,178.605713 
	C217.666702,176.380630 220.836868,174.374649 220.791977,172.443390 
	C220.744934,170.419388 217.981430,167.696259 215.757477,166.631409 
	C209.663284,163.713394 203.228867,161.505951 196.929138,159.017212 
	C187.731186,152.178070 184.785004,144.010513 188.260529,134.985641 
	C191.735565,125.962029 202.272354,120.079460 213.061951,121.309593 
	C222.837997,122.424171 231.017822,126.709381 237.609695,134.437637 
z"/>
<path fill="#FEFBFB" opacity="1.000000" stroke="none" 
	d="
M108.369217,121.798195 
	C108.702271,126.807983 108.702271,131.594528 108.702271,136.759583 
	C100.241890,136.759583 92.488205,136.759583 84.402695,136.759583 
	C84.402695,141.209488 84.402695,145.279907 84.402695,149.847992 
	C91.508369,149.847992 98.741844,149.847992 106.384079,149.847992 
	C106.384079,155.210388 106.384079,160.105209 106.384079,165.691833 
	C99.203011,165.691833 91.844406,165.691833 84.296623,165.691833 
	C84.296623,170.444412 84.296623,174.513870 84.296623,178.958923 
	C92.279236,178.958923 100.042297,178.958923 108.157181,178.958923 
	C108.157181,184.226288 108.157181,189.129120 108.157181,194.815842 
	C95.402657,194.815842 82.682961,194.815842 69.497711,194.845245 
	C68.871918,190.741638 68.584610,186.609009 68.573303,182.475601 
	C68.522934,164.055023 68.551476,145.634232 68.551498,127.213524 
	C68.551498,125.416481 68.551498,123.619446 68.551498,121.574959 
	C82.022964,121.574959 95.029564,121.574959 108.369217,121.798195 
z"/>
<path fill="#E0DEDE" opacity="1.000000" stroke="none" 
	d="
M366.399475,121.794220 
	C366.742218,127.609673 366.742218,133.215378 366.742218,139.299728 
	C361.176819,139.299728 356.418243,139.299728 351.249146,139.299728 
	C351.249146,157.853912 351.249146,175.919006 351.249146,194.383636 
	C345.134796,194.383636 339.435120,194.383636 333.150696,194.383636 
	C333.150696,176.172653 333.150696,157.986847 333.150696,139.226990 
	C328.814087,139.226990 325.020844,139.408478 321.263763,139.119614 
	C320.093048,139.029572 319.020172,137.667419 317.828888,136.442291 
	C317.755280,131.236282 317.755280,126.475601 317.755280,121.584473 
	C334.347504,121.584473 350.202087,121.584473 366.399475,121.794220 
z"/>
<path fill="#E0DEDE" opacity="1.000000" stroke="none" 
	d="
M302.678131,121.622391 
	C295.117767,133.879349 287.230438,145.762085 279.553284,157.779114 
	C278.488617,159.445572 278.053528,161.768890 278.023285,163.798508 
	C277.872498,173.917572 277.954346,184.040085 277.954346,194.560089 
	C272.540131,194.560089 267.495728,194.560089 261.660431,194.560089 
	C261.660431,190.398621 261.651855,186.161316 261.662903,181.924026 
	C261.673309,177.933792 261.418549,173.916687 261.791534,169.959564 
	C262.394135,163.566589 261.150970,157.837326 256.985016,152.014557 
	C256.964081,142.128845 256.967987,133.069977 256.971924,124.011101 
	C257.699249,124.925186 258.426544,125.839272 259.513855,127.226021 
	C260.527618,128.540543 261.181396,129.382385 261.835144,130.224243 
	C261.835144,130.224243 261.794861,130.128952 261.852631,130.490173 
	C264.396729,134.678177 266.883026,138.504974 269.764801,142.940414 
	C270.968933,140.933105 271.792084,139.560867 272.615265,138.188629 
	C275.826263,133.365463 278.921570,128.458221 282.324646,123.774628 
	C283.245148,122.507751 285.066284,121.208870 286.527618,121.144638 
	C291.812012,120.912384 297.119202,121.199608 302.678131,121.622391 
z"/>
<path fill="#FFFAF9" opacity="1.000000" stroke="none" 
	d="
M256.825897,123.663406 
	C256.967987,133.069977 256.964081,142.128845 256.960999,151.665695 
	C255.959518,150.879883 254.957214,149.616089 253.651611,147.801468 
	C252.904800,146.763428 252.461288,146.276199 252.017776,145.788956 
	C252.044189,145.524750 251.979736,145.285034 251.685837,144.944046 
	C246.740067,137.191971 241.932831,129.565628 236.643600,121.174629 
	C242.858307,121.174629 248.242722,121.062370 253.614639,121.271439 
	C254.661316,121.312172 255.659409,122.602020 256.825897,123.663406 
z"/>
<path fill="#C8321E" opacity="1.000000" stroke="none" 
	d="
M197.015945,159.350311 
	C203.228867,161.505951 209.663284,163.713394 215.757477,166.631409 
	C217.981430,167.696259 220.744934,170.419388 220.791977,172.443390 
	C220.836868,174.374649 217.666702,176.380630 215.548523,178.433563 
	C210.518661,173.874252 205.815536,169.269150 201.201569,164.576401 
	C199.714615,163.064056 198.462372,161.320969 197.015945,159.350311 
z"/>
<path fill="#C83421" opacity="1.000000" stroke="none" 
	d="
M272.314026,138.064606 
	C271.792084,139.560867 270.968933,140.933105 269.764801,142.940414 
	C266.883026,138.504974 264.396729,134.678177 261.806763,130.514130 
	C265.139709,132.764786 268.576233,135.352692 272.314026,138.064606 
z"/>
<path fill="#C83421" opacity="1.000000" stroke="none" 
	d="
M261.880585,129.849487 
	C261.181396,129.382385 260.527618,128.540543 259.760010,127.392014 
	C260.406097,127.881798 261.166077,128.678253 261.880585,129.849487 
z"/>
<path fill="#C62D19" opacity="1.000000" stroke="none" 
	d="
M83.178688,302.703735 
	C83.552200,302.769531 84.123260,303.110016 84.883698,303.724274 
	C84.507477,303.658173 83.941856,303.318268 83.178688,302.703735 
z"/>
<path fill="#C62D19" opacity="1.000000" stroke="none" 
	d="
M439.880463,141.761017 
	C439.501556,141.619537 439.063751,141.140121 438.523163,140.325287 
	C438.887451,140.467621 439.354523,140.945358 439.880463,141.761017 
z"/>
<path fill="#C62D19" opacity="1.000000" stroke="none" 
	d="
M85.122482,304.141876 
	C85.323914,304.087158 85.666313,304.248322 86.039032,304.698242 
	C85.800713,304.777252 85.532082,304.567505 85.122482,304.141876 
z"/>
<path fill="#FFD9AD" opacity="1.000000" stroke="none" 
	d="
M294.455048,333.964783 
	C297.594360,330.752258 300.742035,327.547852 303.871307,324.325592 
	C311.171661,316.808258 313.561432,307.862366 311.493713,297.680298 
	C308.648163,283.667725 305.655884,269.684387 302.899719,255.654465 
	C301.273102,247.374390 305.668152,242.778397 313.957703,243.649155 
	C321.834351,244.476562 328.632111,247.916565 333.076721,254.197372 
	C337.725098,260.766113 341.120850,268.228363 344.964844,275.353607 
	C345.799774,276.901276 346.212616,278.676666 346.819855,280.347137 
	C347.437622,280.796570 348.055389,281.245972 348.673157,281.695374 
	C349.563568,280.083618 350.143250,278.163452 351.391052,276.906433 
	C369.454285,258.709778 387.621674,240.616623 405.728638,222.463257 
	C410.438354,217.741531 415.952881,216.257965 422.162903,218.547668 
	C427.834229,220.638779 430.886658,225.056610 431.441528,231.048325 
	C431.884094,235.827393 430.057953,239.818039 426.691833,243.170624 
	C420.203888,249.632446 413.734833,256.113159 406.703979,262.942993 
	C399.583099,269.912109 393.065826,276.574829 386.421906,283.108795 
	C384.120300,285.372314 383.472443,287.245239 386.124664,289.756195 
	C391.802826,295.132019 397.316254,300.681824 402.835205,306.485229 
	C401.546112,308.344482 400.450867,310.010345 399.071930,311.393372 
	C379.389130,331.134247 359.657166,350.826111 339.977722,370.570343 
	C338.482697,372.070312 337.294769,373.876373 335.665192,375.468994 
	C334.958069,375.386108 334.549866,375.374390 334.150024,375.037354 
	C330.238373,370.641388 326.341370,366.548218 322.393616,362.504639 
	C313.093628,352.978790 303.769440,343.476562 294.455048,333.964783 
z"/>
<path fill="#FFC898" opacity="1.000000" stroke="none" 
	d="
M335.964111,375.540192 
	C337.294769,373.876373 338.482697,372.070312 339.977722,370.570343 
	C359.657166,350.826111 379.389130,331.134247 399.071930,311.393372 
	C400.450867,310.010345 401.546112,308.344482 403.178253,306.380127 
	C409.916138,300.298065 416.248993,294.645966 422.581848,288.993835 
	C430.125854,285.530273 435.899506,286.492737 441.114258,292.083130 
	C445.988922,297.308929 446.268005,303.786469 441.505615,311.751160 
	C435.833618,317.541779 430.599945,322.919159 424.558441,329.126526 
	C429.025574,333.217041 433.177368,336.755798 437.008301,340.613190 
	C439.875366,343.500061 442.328857,346.797577 444.966492,349.912231 
	C433.468658,361.451569 422.000397,373.020599 410.459503,384.516724 
	C405.303375,389.652832 398.914246,392.995331 391.734619,392.653442 
	C383.193390,392.246735 376.987976,395.435822 371.821960,401.745789 
	C370.565704,403.280212 369.006653,404.566742 366.995605,406.063080 
	C356.257660,395.952667 346.110901,385.746429 335.964111,375.540192 
z"/>
<path fill="#81D060" opacity="1.000000" stroke="none" 
	d="
M294.174194,333.762054 
	C303.769440,343.476562 313.093628,352.978790 322.393616,362.504639 
	C326.341370,366.548218 330.238373,370.641388 334.055176,375.410217 
	C332.628265,377.595215 331.373627,379.150818 329.970215,380.558075 
	C316.791870,393.772888 303.574982,406.949310 290.410919,420.178284 
	C289.020813,421.575256 287.897888,423.238068 286.651001,424.777527 
	C270.176971,408.359131 253.702972,391.940704 237.625290,375.917267 
	C254.077774,359.464600 270.155457,343.386749 286.636749,326.905243 
	C288.612030,328.716522 291.252686,331.137909 294.174194,333.762054 
z"/>
<path fill="#FEDE29" opacity="1.000000" stroke="none" 
	d="
M178.061508,286.139618 
	C182.161118,285.797974 186.216431,286.189941 189.479767,284.766388 
	C194.168030,282.721313 194.050537,278.847046 189.668549,276.073181 
	C187.443054,274.664398 184.900558,273.731445 182.448090,272.711487 
	C177.685699,270.730804 172.846756,268.931152 168.109116,266.894653 
	C157.078873,262.153229 151.613098,253.976944 151.982285,242.988312 
	C152.330750,232.616455 159.092422,223.503128 169.548553,219.725967 
	C183.304749,214.756668 195.768539,218.197083 207.329330,226.146729 
	C210.584976,228.385452 213.449265,231.193329 216.954605,234.126358 
	C212.274338,239.729156 207.857452,245.016663 203.112625,250.696762 
	C200.117142,248.296127 197.516403,246.030258 194.731216,244.019928 
	C189.866043,240.508255 184.544281,238.059280 178.438690,239.927856 
	C176.710907,240.456650 175.448303,242.505402 173.972351,243.857056 
	C175.223526,244.986877 176.295563,246.515366 177.758957,247.173019 
	C182.459122,249.285294 187.304245,251.074921 192.092590,252.991196 
	C193.019669,253.362198 193.947845,253.731140 194.867035,254.121002 
	C210.012833,260.544769 217.348404,272.779633 214.072220,286.146820 
	C210.654526,300.091461 196.265045,309.794586 180.886124,308.524902 
	C165.004578,307.213684 153.096329,300.131989 143.910294,286.308044 
	C148.997116,281.696381 154.134247,277.039093 158.333450,273.232147 
	C165.187820,277.781647 171.425629,281.921906 178.061508,286.139618 
z"/>
<path fill="#0AB865" opacity="1.000000" stroke="none" 
	d="
M286.878601,425.067841 
	C287.897888,423.238068 289.020813,421.575256 290.410919,420.178284 
	C303.574982,406.949310 316.791870,393.772888 329.970215,380.558075 
	C331.373627,379.150818 332.628265,377.595215 334.046814,375.735535 
	C334.549866,375.374390 334.958069,375.386108 335.665192,375.468994 
	C346.110901,385.746429 356.257660,395.952667 366.671509,406.294861 
	C369.645111,409.322052 372.351654,412.213226 374.695038,414.716492 
	C358.279266,431.148560 342.088745,447.355164 325.624298,463.835938 
	C312.974304,451.199158 300.040283,438.278656 286.878601,425.067841 
z"/>
<path fill="#FFE029" opacity="1.000000" stroke="none" 
	d="
M256.961365,273.849152 
	C253.867722,273.849152 250.774094,273.849152 247.386292,273.849152 
	C247.386292,278.293976 247.386292,282.033600 247.386292,286.690399 
	C250.305008,286.690399 253.200684,286.690399 256.552124,287.198517 
	C256.968842,294.673706 256.929749,301.640778 256.890686,308.607849 
	C246.466019,308.607849 236.041351,308.607849 225.370895,308.607849 
	C225.370895,278.005371 225.370895,248.002029 225.370895,217.390198 
	C235.763428,217.390198 245.863098,217.390198 256.447662,217.859833 
	C256.955139,225.331635 256.977753,232.333771 257.000366,239.335922 
	C253.905197,239.335922 250.810028,239.335922 247.403137,239.335922 
	C247.403137,243.705185 247.403137,247.424118 247.403137,252.044083 
	C250.284088,252.044083 253.171539,252.044083 256.518890,252.561066 
	C256.972992,260.001770 256.967163,266.925446 256.961365,273.849152 
z"/>
<path fill="#FEB884" opacity="1.000000" stroke="none" 
	d="
M422.714569,288.574249 
	C416.248993,294.645966 409.916138,300.298065 403.240204,306.055237 
	C397.316254,300.681824 391.802826,295.132019 386.124664,289.756195 
	C383.472443,287.245239 384.120300,285.372314 386.421906,283.108795 
	C393.065826,276.574829 399.583099,269.912109 406.432953,263.156494 
	C407.890228,263.341431 409.057129,263.924225 410.240204,263.959198 
	C422.942627,264.334442 429.296448,274.875275 423.695892,286.374298 
	C423.408051,286.965332 423.129944,287.561096 422.714569,288.574249 
z"/>
<path fill="#FEB784" opacity="1.000000" stroke="none" 
	d="
M445.261414,349.765137 
	C442.328857,346.797577 439.875366,343.500061 437.008301,340.613190 
	C433.177368,336.755798 429.025574,333.217041 424.558441,329.126526 
	C430.599945,322.919159 435.833618,317.541779 441.387085,312.111389 
	C442.993744,311.782593 444.275269,311.478271 445.568420,311.235840 
	C451.708527,310.084656 457.853668,312.749512 460.984192,317.902496 
	C464.382843,323.496887 463.985138,330.378815 459.448151,335.425720 
	C455.026489,340.344330 450.203247,344.901917 445.261414,349.765137 
z"/>
<path fill="#FBB21F" opacity="1.000000" stroke="none" 
	d="
M257.352539,308.731934 
	C256.929749,301.640778 256.968842,294.673706 257.003357,287.217621 
	C262.610382,286.543854 268.227753,286.172119 273.828003,286.347900 
	C274.828583,286.379303 276.506012,288.630829 276.588257,289.937958 
	C276.911072,295.067596 276.644928,300.231049 276.750549,305.378815 
	C276.810059,308.280060 275.411316,309.087769 272.760742,309.007538 
	C267.781677,308.856842 262.796875,308.895905 257.352539,308.731934 
z"/>
<path fill="#FAB520" opacity="1.000000" stroke="none" 
	d="
M257.364868,239.514969 
	C256.977753,232.333771 256.955139,225.331635 256.906799,217.893997 
	C262.351959,217.327805 267.833496,216.976471 273.285431,217.239319 
	C274.477631,217.296799 276.445648,219.479538 276.543671,220.796112 
	C276.925171,225.920853 276.645172,231.091675 276.717987,236.243835 
	C276.758514,239.110947 275.316956,239.985214 272.677216,239.906387 
	C267.696899,239.757706 262.712219,239.756516 257.364868,239.514969 
z"/>
<path fill="#FFBA1F" opacity="1.000000" stroke="none" 
	d="
M257.428497,273.910889 
	C256.967163,266.925446 256.972992,260.001770 256.968781,252.620636 
	C261.250122,252.110397 265.548370,252.187775 269.830536,251.961319 
	C272.940735,251.796814 274.371765,252.738968 274.214722,256.099365 
	C273.999115,260.713379 273.997253,265.352661 274.214294,269.966522 
	C274.374512,273.373444 272.843353,274.220520 269.783081,274.071198 
	C265.828430,273.878326 261.858795,273.991333 257.428497,273.910889 
z"/>
<path fill="#EF4D37" opacity="1.000000" stroke="none" 
	d="
M252.055450,146.140625 
	C252.461288,146.276199 252.904800,146.763428 253.444885,147.580200 
	C253.058670,147.437271 252.575912,146.964783 252.055450,146.140625 
z"/>
<path fill="#C62F1B" opacity="1.000000" stroke="none" 
	d="
M424.513733,161.249191 
	C421.742920,171.132095 414.567566,176.910950 405.785278,176.644638 
	C397.375732,176.389618 389.835938,170.309830 388.064453,162.355240 
	C386.156067,153.785797 390.064453,145.142807 397.778717,141.355972 
	C404.274963,138.166992 410.749176,138.521286 416.693359,142.667526 
	C422.961182,147.039536 425.560120,153.228882 424.513733,161.249191 
z"/>
<path fill="#C83522" opacity="1.000000" stroke="none" 
	d="
M151.592560,160.492630 
	C152.152649,162.086685 152.536423,163.317963 153.021698,164.874878 
	C148.875305,164.874878 145.026566,164.874878 140.618851,164.874878 
	C142.627289,159.529144 144.507980,154.523407 146.863251,148.254532 
	C148.662399,152.947144 150.039337,156.538498 151.592560,160.492630 
z"/>
</svg>