<svg version="1.1" id="Layer_1" xmlns="http://www.w3.org/2000/svg" xmlns:xlink="http://www.w3.org/1999/xlink" x="0px" y="0px"
	 width="100%" viewBox="0 0 512 382" enable-background="new 0 0 512 382" xml:space="preserve">
<path fill="#D4E8F4" opacity="1.000000" stroke="none" 
	d="
M59.000000,1.000000 
	C166.354767,1.000000 273.709534,1.000000 381.224182,1.290027 
	C382.858337,2.503357 384.299103,3.485895 385.812195,4.340418 
	C396.205383,10.210043 401.873840,18.935738 401.996826,31.021749 
	C402.064301,37.654655 402.097443,44.287910 402.083801,51.335327 
	C401.262970,52.882938 400.659454,54.851967 399.722870,55.025707 
	C382.112335,58.292660 374.313629,75.016144 375.186981,90.076347 
	C375.364655,93.140213 376.595093,96.143028 377.340210,99.173988 
	C377.796570,99.108421 378.252930,99.042854 378.709259,98.977287 
	C379.269470,96.755638 379.829712,94.533989 380.156006,93.239967 
	C382.711182,96.778152 385.417236,100.525291 388.271210,104.626869 
	C388.414490,107.763504 388.622192,110.565208 388.368835,113.324562 
	C387.204468,126.004807 387.473358,138.301453 396.413300,148.690063 
	C398.434814,151.039200 400.199036,153.609787 402.044403,156.541473 
	C402.022217,162.305115 402.037292,167.605728 401.671051,173.045197 
	C399.660187,173.483597 398.042358,173.908508 396.399170,174.062531 
	C385.029083,175.128403 375.498749,179.297012 367.983795,188.453369 
	C352.916016,206.812164 337.362244,224.772125 322.002838,242.891449 
	C320.662903,244.472183 319.276978,246.013947 317.809509,247.691422 
	C315.573303,246.068481 313.806122,244.835846 312.091827,243.533600 
	C301.381287,235.397598 290.682587,227.246063 279.695068,218.925049 
	C273.010742,212.803177 266.406067,207.008148 264.467834,198.043884 
	C266.975189,197.682236 269.255066,197.732513 271.112366,196.871353 
	C272.938568,196.024628 274.335846,194.252853 275.921356,192.886993 
	C274.322754,191.565140 272.724182,190.243286 271.109100,188.585510 
	C270.942719,187.598343 270.792816,186.947128 270.979187,186.109009 
	C272.139191,184.298050 273.712097,182.584183 273.531891,181.080383 
	C273.404816,180.019821 270.926788,178.538712 269.448730,178.479233 
	C265.625092,178.325317 261.773926,178.854584 257.627930,178.950500 
	C252.677643,176.554688 251.242096,177.391098 251.007721,182.490875 
	C250.955322,183.630753 250.968460,184.773666 250.592285,185.887604 
	C243.463867,183.975693 236.753845,181.808578 229.890991,180.371063 
	C227.694901,179.911057 225.094254,181.382446 222.678696,181.970169 
	C223.811066,183.723465 224.943436,185.476761 225.739563,187.353485 
	C221.719131,189.522568 218.034897,191.568237 214.093292,193.756821 
	C219.876297,196.246841 225.423553,199.062729 231.969009,197.241180 
	C232.124985,199.202713 231.980652,200.894897 232.389725,202.440643 
	C233.422150,206.341782 234.703705,210.177017 235.952271,214.373352 
	C237.324326,215.519409 238.629532,216.330734 240.129517,217.421295 
	C244.338409,219.482239 248.424561,221.120132 252.347321,223.084305 
	C256.655609,225.241547 260.813385,227.699356 264.880127,230.380096 
	C264.775146,233.161880 264.826782,235.589767 264.928040,238.363159 
	C265.978455,240.026642 266.943420,241.373718 267.986237,242.657578 
	C272.378113,248.064606 276.793213,253.452759 280.723145,258.917969 
	C268.276489,258.992371 256.306458,259.015594 244.336487,258.997009 
	C214.248779,258.950287 184.161087,258.884735 154.216446,258.523499 
	C154.185745,256.800446 154.291733,255.273407 153.794876,253.977509 
	C148.942444,241.321289 144.136017,228.643677 139.004517,216.099777 
	C136.340195,209.586868 133.050446,203.329788 129.959534,196.792755 
	C129.875824,196.628342 129.796417,196.267990 129.807373,196.007736 
	C129.621368,195.471832 129.424423,195.196198 129.093460,194.579651 
	C123.484383,184.619415 119.163200,174.070374 112.308319,165.562836 
	C94.840286,143.883423 68.760628,133.113525 40.784668,145.816238 
	C39.975368,145.900726 39.512619,145.942764 39.027092,145.517578 
	C39.002800,107.306610 38.961647,69.562790 39.021782,31.819124 
	C39.042191,19.008856 44.986305,9.762205 56.369556,3.898389 
	C57.455807,3.338832 58.132938,1.985063 59.000000,1.000000 
M227.786484,80.291130 
	C225.733826,74.948784 222.517365,72.508476 218.478745,73.229378 
	C213.903198,74.046135 211.854996,77.465736 211.189438,83.926781 
	C207.395462,84.306152 203.585953,84.572487 199.811066,85.090889 
	C193.872986,85.906357 193.463165,86.891586 194.460739,92.976173 
	C197.087738,108.999573 199.593567,125.044243 201.962830,141.107712 
	C202.776901,146.627106 203.927933,147.624817 209.343307,146.727798 
	C219.476135,145.049332 229.644333,143.585175 239.780716,141.927246 
	C245.449539,141.000061 251.084000,139.862762 256.827148,138.802917 
	C253.803360,118.959602 250.947357,99.803528 247.804352,80.694649 
	C247.629227,79.629944 244.985596,78.100777 243.654922,78.250015 
	C238.398300,78.839569 233.207092,80.012466 227.786484,80.291130 
M126.051956,44.244347 
	C125.864616,39.492455 123.717499,36.374027 118.727699,36.003670 
	C114.309532,35.675735 111.756111,38.294285 109.686600,44.006241 
	C101.928238,43.437637 94.154335,43.021439 86.418488,42.232136 
	C82.879982,41.871094 82.147865,43.430691 81.982918,46.455521 
	C81.044479,63.664433 80.034096,80.869827 78.944923,98.069878 
	C78.579140,103.846375 78.195061,109.649010 77.287033,115.354980 
	C76.598106,119.684166 78.041695,120.921661 82.210609,121.073532 
	C90.809998,121.386810 99.390427,122.203613 107.981194,122.775085 
	C119.390114,123.534042 130.802872,124.235542 142.210739,125.009834 
	C144.983017,125.197998 145.927383,124.074379 146.065628,121.277161 
	C146.580765,110.853737 147.277802,100.437370 148.057632,90.029678 
	C148.527222,83.762352 149.395966,77.524971 149.867126,71.257729 
	C150.376633,64.480446 150.594391,57.681709 151.017197,50.897182 
	C151.183746,48.224411 150.275772,47.064499 147.404114,46.888866 
	C140.306351,46.454765 133.229843,45.673172 126.051956,44.244347 
M333.096008,42.163094 
	C332.484741,36.677422 329.867371,33.616405 325.482971,33.259697 
	C321.417450,32.928932 318.243347,35.703491 315.720123,41.020267 
	C307.002014,40.545105 298.283905,40.069942 288.922089,39.559696 
	C287.049469,65.658760 285.196014,91.491013 283.312408,117.743134 
	C291.763519,118.243660 299.838837,118.670837 307.906525,119.211296 
	C321.283752,120.107445 334.657440,121.057922 348.029358,122.030655 
	C350.660492,122.222054 351.977600,121.380768 352.163879,118.512482 
	C352.646179,111.086281 353.435669,103.680580 353.981384,96.257782 
	C354.479492,89.482697 354.760559,82.691811 355.241608,75.915298 
	C355.986023,65.428894 356.819244,54.948795 357.644287,44.077332 
	C349.040436,43.681122 341.112579,43.316044 333.096008,42.163094 
z"/>
<path fill="#000000" opacity="1.000000" stroke="none" 
	d="
M154.073395,258.826721 
	C184.161087,258.884735 214.248779,258.950287 244.336487,258.997009 
	C256.306458,259.015594 268.276489,258.992371 280.987793,259.123901 
	C288.546173,266.184174 295.099304,273.402344 302.313141,279.885315 
	C305.108704,282.397675 309.399109,283.246674 313.406982,284.927917 
	C317.382294,283.663818 321.359680,282.925476 324.452637,280.861633 
	C330.905823,276.555634 336.891724,271.549347 343.420837,267.079468 
	C344.181549,272.076813 345.155823,276.857483 344.888885,281.567780 
	C344.230255,293.190369 343.873901,304.940887 341.778107,316.342621 
	C339.269501,329.990021 335.291656,343.387756 331.542480,356.779480 
	C329.066467,365.623657 325.872498,374.266846 323.000000,383.000000 
	C215.765976,383.000000 108.531967,383.000000 1.000000,383.000000 
	C1.000000,332.979492 1.000000,282.958405 1.389756,232.476746 
	C2.122121,232.351166 2.634412,232.624237 2.782549,233.030182 
	C6.570699,243.410812 9.371219,254.281509 14.290107,264.090851 
	C22.599567,280.661743 35.389839,293.328735 52.887196,300.319489 
	C65.034637,305.172791 77.529015,306.288696 90.375839,300.898773 
	C114.401527,296.557129 126.692039,277.304352 131.474182,259.001709 
	C139.319168,258.935730 146.696289,258.881226 154.073395,258.826721 
z"/>
<path fill="#F75C8A" opacity="1.000000" stroke="none" 
	d="
M313.008545,284.853424 
	C309.399109,283.246674 305.108704,282.397675 302.313141,279.885315 
	C295.099304,273.402344 288.546173,266.184174 281.464478,259.053711 
	C276.793213,253.452759 272.378113,248.064606 267.986237,242.657578 
	C266.943420,241.373718 265.978455,240.026642 265.337769,238.352478 
	C267.527832,237.639679 269.357727,237.283020 271.517548,236.853546 
	C279.572235,233.193237 280.294769,226.385010 279.979950,219.099655 
	C290.682587,227.246063 301.381287,235.397598 312.091827,243.533600 
	C313.806122,244.835846 315.573303,246.068481 317.809509,247.691422 
	C319.276978,246.013947 320.662903,244.472183 322.002838,242.891449 
	C337.362244,224.772125 352.916016,206.812164 367.983795,188.453369 
	C375.498749,179.297012 385.029083,175.128403 396.399170,174.062531 
	C398.042358,173.908508 399.660187,173.483597 402.060730,172.924316 
	C407.540161,172.071167 412.248535,171.477753 416.971558,171.236847 
	C415.649719,173.260864 414.309814,174.929611 412.977448,176.604385 
	C407.309448,183.729111 401.643707,190.855606 395.712585,198.190155 
	C394.282349,200.216766 393.062714,202.002594 391.958893,203.857361 
	C367.323273,245.253998 361.463989,291.098846 360.136780,338.492889 
	C360.051392,353.637482 360.025696,368.318756 360.000000,383.000000 
	C347.979095,383.000000 335.958221,383.000000 323.468658,383.000000 
	C325.872498,374.266846 329.066467,365.623657 331.542480,356.779480 
	C335.291656,343.387756 339.269501,329.990021 341.778107,316.342621 
	C343.873901,304.940887 344.230255,293.190369 344.888885,281.567780 
	C345.155823,276.857483 344.181549,272.076813 343.614258,266.759094 
	C343.960785,264.673889 344.833679,263.175873 344.909302,261.638641 
	C345.378510,252.101562 345.668762,242.555695 346.210907,232.892654 
	C346.388702,232.439133 346.373993,232.105713 346.359283,231.772278 
	C346.233154,232.175125 346.107025,232.577988 345.708923,233.192810 
	C342.262207,240.860077 339.445038,248.493988 335.830048,255.729263 
	C330.230652,266.936218 325.017487,278.604065 313.008545,284.853424 
z"/>
<path fill="#5F4342" opacity="1.000000" stroke="none" 
	d="
M388.123291,104.272430 
	C385.417236,100.525291 382.711182,96.778152 380.156006,93.239967 
	C379.829712,94.533989 379.269470,96.755638 378.709259,98.977287 
	C378.252930,99.042854 377.796570,99.108421 377.340210,99.173988 
	C376.595093,96.143028 375.364655,93.140213 375.186981,90.076347 
	C374.313629,75.016144 382.112335,58.292660 399.722870,55.025707 
	C400.659454,54.851967 401.262970,52.882938 402.357727,51.159061 
	C406.235260,47.719597 409.388794,44.042934 413.387177,42.169380 
	C428.329376,35.167820 443.866455,35.647659 459.346405,40.296764 
	C484.036987,47.712116 496.134888,70.275620 494.853546,92.773827 
	C494.588348,97.430283 492.785309,101.999153 491.663055,106.726303 
	C499.110229,110.574509 506.144440,114.835220 510.167145,122.624557 
	C510.824707,123.897774 512.041626,124.882118 513.000000,126.000000 
	C513.000000,133.687576 513.000000,141.375168 512.633057,149.490936 
	C511.862396,150.395676 511.282410,150.807724 511.080963,151.358261 
	C506.485016,163.919373 497.470337,171.340393 484.435303,173.589554 
	C481.260986,174.137283 477.753052,173.272614 474.493774,172.597519 
	C472.739471,172.234146 471.225952,170.211899 469.536926,170.116043 
	C462.284882,169.704437 461.939270,168.656189 464.567993,161.638474 
	C467.836029,152.914108 470.225037,143.860489 473.066193,134.626053 
	C474.709778,132.217712 476.280853,130.132401 478.210449,128.018539 
	C485.050537,124.125664 487.512054,117.998032 489.015137,111.678436 
	C484.971588,113.930275 481.239105,116.008888 477.198242,117.909515 
	C473.218353,114.765038 469.501434,115.274696 465.853912,117.708206 
	C464.058441,118.906067 462.410248,120.323624 460.685364,121.628441 
	C456.950775,124.453407 455.114563,123.990082 454.054932,119.460365 
	C453.073547,115.265236 452.593628,110.945740 452.019928,106.663986 
	C451.202240,100.561394 449.262390,95.654427 442.407806,93.774933 
	C435.855652,91.978371 429.520386,89.379318 423.113068,87.068451 
	C413.319122,83.536156 407.174927,76.560135 404.122986,66.720634 
	C403.650146,65.196167 403.220184,63.658379 402.645477,61.701355 
	C396.093231,67.224060 391.798981,73.850182 390.224976,81.567566 
	C388.715118,88.970795 388.761078,96.691338 388.123291,104.272430 
M455.436249,51.436768 
	C452.690338,54.044662 454.724182,56.308407 456.501160,57.743267 
	C459.574005,60.224457 463.011749,62.362320 466.567017,64.086014 
	C468.070374,64.814865 470.999847,64.847412 471.930756,63.887260 
	C472.882446,62.905697 472.697174,60.135944 472.105255,58.470398 
	C470.219513,53.164394 464.609406,50.740395 455.436249,51.436768 
z"/>
<path fill="#000000" opacity="1.000000" stroke="none" 
	d="
M513.000000,125.531342 
	C512.041626,124.882118 510.824707,123.897774 510.167145,122.624557 
	C506.144440,114.835220 499.110229,110.574509 491.663055,106.726303 
	C492.785309,101.999153 494.588348,97.430283 494.853546,92.773827 
	C496.134888,70.275620 484.036987,47.712116 459.346405,40.296764 
	C443.866455,35.647659 428.329376,35.167820 413.387177,42.169380 
	C409.388794,44.042934 406.235260,47.719597 402.419983,50.744736 
	C402.097443,44.287910 402.064301,37.654655 401.996826,31.021749 
	C401.873840,18.935738 396.205383,10.210043 385.812195,4.340418 
	C384.299103,3.485895 382.858337,2.503357 381.692047,1.290027 
	C425.591919,1.000000 469.183838,1.000000 513.000000,1.000000 
	C513.000000,42.353958 513.000000,83.708321 513.000000,125.531342 
z"/>
<path fill="#000000" opacity="1.000000" stroke="none" 
	d="
M58.531342,1.000000 
	C58.132938,1.985063 57.455807,3.338832 56.369556,3.898389 
	C44.986305,9.762205 39.042191,19.008856 39.021782,31.819124 
	C38.961647,69.562790 39.002800,107.306610 38.654251,145.554382 
	C30.386459,148.491684 23.877935,153.204483 18.502810,159.280762 
	C10.737310,168.059204 6.128255,178.577255 2.957910,189.781464 
	C2.715794,190.637131 1.671450,191.265808 0.999999,192.000000 
	C1.000000,128.445358 1.000000,64.890724 1.000000,1.000000 
	C20.019575,1.000000 39.041130,1.000000 58.531342,1.000000 
z"/>
<path fill="#000000" opacity="1.000000" stroke="none" 
	d="
M472.993652,134.949066 
	C470.225037,143.860489 467.836029,152.914108 464.567993,161.638474 
	C461.939270,168.656189 462.284882,169.704437 469.536926,170.116043 
	C471.225952,170.211899 472.739471,172.234146 474.493774,172.597519 
	C477.753052,173.272614 481.260986,174.137283 484.435303,173.589554 
	C497.470337,171.340393 506.485016,163.919373 511.080963,151.358261 
	C511.282410,150.807724 511.862396,150.395676 512.633057,149.959564 
	C513.000000,227.542938 513.000000,305.085876 513.000000,383.000000 
	C499.314667,383.000000 485.626007,383.000000 471.369598,382.655579 
	C470.422791,381.605011 470.021637,380.909729 469.667969,380.191071 
	C463.044769,366.733490 456.427246,353.273163 449.960022,339.551331 
	C450.694183,339.190002 451.276794,339.090698 452.040283,339.330444 
	C453.933685,339.408936 456.102631,339.729614 457.288605,338.798370 
	C469.759308,329.006531 482.485016,319.468231 494.200958,308.825867 
	C498.169250,305.221222 500.859283,298.903259 501.716095,293.445740 
	C503.622192,281.304840 504.562653,268.937622 504.853973,256.637939 
	C505.175446,243.064301 504.749359,229.433914 503.806213,215.886902 
	C503.377106,209.723679 500.155060,204.447739 494.459595,200.693680 
	C481.842865,192.377594 469.551941,183.567200 457.070618,174.525940 
	C458.009277,166.570984 459.412201,159.074005 459.886719,151.518723 
	C460.355865,144.048386 461.949158,137.924469 470.375183,136.100891 
	C471.288330,135.903244 472.122711,135.341766 472.993652,134.949066 
z"/>
<path fill="#303F53" opacity="1.000000" stroke="none" 
	d="
M0.999999,192.468658 
	C1.671450,191.265808 2.715794,190.637131 2.957910,189.781464 
	C6.128255,178.577255 10.737310,168.059204 18.502810,159.280762 
	C23.877935,153.204483 30.386459,148.491684 38.677032,146.021591 
	C39.512619,145.942764 39.975368,145.900726 40.647987,146.145691 
	C40.414928,146.925751 40.045189,147.521469 39.518448,147.896957 
	C22.703590,159.883392 15.201548,177.182404 13.203403,196.830826 
	C10.933806,219.148529 14.970955,240.593750 26.184385,260.307343 
	C35.251839,276.248199 46.816196,290.036743 64.500763,296.489990 
	C72.479065,299.401367 81.463272,299.556183 89.991104,300.961670 
	C77.529015,306.288696 65.034637,305.172791 52.887196,300.319489 
	C35.389839,293.328735 22.599567,280.661743 14.290107,264.090851 
	C9.371219,254.281509 6.570699,243.410812 2.782549,233.030182 
	C2.634412,232.624237 2.122121,232.351166 1.389756,232.008087 
	C1.000000,218.979111 1.000000,205.958206 0.999999,192.468658 
z"/>
<path fill="#5E6674" opacity="1.000000" stroke="none" 
	d="
M360.468658,383.000000 
	C360.025696,368.318756 360.051392,353.637482 360.504272,338.558502 
	C376.233521,342.683350 391.550140,341.656647 407.003937,338.774841 
	C407.229919,339.595276 407.324890,339.922211 407.132629,340.475983 
	C405.465210,341.390106 404.085052,342.077393 402.704865,342.764648 
	C402.677338,343.264709 402.649811,343.764771 402.622284,344.264832 
	C404.449371,344.842896 406.276489,345.420929 408.176392,346.384125 
	C408.610840,349.103455 408.972504,351.437683 409.106140,354.047424 
	C405.195099,357.678711 401.410706,360.934021 397.907990,364.468445 
	C397.135559,365.247864 397.361481,367.016754 397.127686,368.330017 
	C398.357361,368.381439 399.738922,368.811646 400.780518,368.394012 
	C402.278900,367.793213 403.544586,366.595612 404.883057,365.616455 
	C407.004822,364.064331 409.104614,362.482147 411.213684,360.912689 
	C411.569336,361.289093 411.924957,361.665466 412.280609,362.041870 
	C410.745270,364.267151 409.223389,366.501892 407.670654,368.714935 
	C406.243561,370.748962 404.566864,372.648651 403.445038,374.835754 
	C403.002533,375.698486 403.764587,377.179047 403.978149,378.378296 
	C405.003510,378.102570 406.296448,378.126495 407.003967,377.494781 
	C409.101501,375.621948 410.968231,373.490631 413.038940,371.787109 
	C413.443207,372.738556 413.733734,373.363281 413.911499,374.347839 
	C413.131409,376.778717 411.518951,379.055511 415.037231,380.572510 
	C415.049805,381.614471 415.024902,382.307220 415.000000,383.000000 
	C396.979095,383.000000 378.958221,383.000000 360.468658,383.000000 
z"/>
<path fill="#F75C8B" opacity="1.000000" stroke="none" 
	d="
M415.468658,383.000000 
	C415.024902,382.307220 415.049805,381.614471 415.332428,380.395691 
	C419.143524,375.723114 422.696869,371.576569 426.250244,367.429993 
	C426.600098,367.668488 426.949921,367.906952 427.299744,368.145416 
	C426.182281,370.472931 424.891083,372.738617 424.030090,375.157440 
	C423.669342,376.170807 424.220734,377.508881 424.357391,378.699310 
	C425.482605,378.299957 427.236176,378.225067 427.635895,377.451050 
	C431.650391,369.677460 436.213593,362.055054 439.045898,353.846161 
	C441.193085,347.623138 443.842285,342.686707 449.808502,339.813385 
	C456.427246,353.273163 463.044769,366.733490 469.667969,380.191071 
	C470.021637,380.909729 470.422791,381.605011 470.900940,382.655579 
	C452.645782,383.000000 434.291534,383.000000 415.468658,383.000000 
z"/>
<path fill="#526A8B" opacity="1.000000" stroke="none" 
	d="
M90.375839,300.898804 
	C81.463272,299.556183 72.479065,299.401367 64.500763,296.489990 
	C46.816196,290.036743 35.251839,276.248199 26.184385,260.307343 
	C14.970955,240.593750 10.933806,219.148529 13.203403,196.830826 
	C15.201548,177.182404 22.703590,159.883392 39.518448,147.896957 
	C40.045189,147.521469 40.414928,146.925751 40.994541,146.103241 
	C68.760628,133.113525 94.840286,143.883423 112.308319,165.562836 
	C119.163200,174.070374 123.484383,184.619415 129.076355,194.841797 
	C129.394333,195.719238 129.595383,195.993607 129.796417,196.267990 
	C129.796417,196.267990 129.875824,196.628342 129.926514,197.202026 
	C135.134109,218.107300 135.880081,238.513031 131.006287,259.013184 
	C126.692039,277.304352 114.401527,296.557129 90.375839,300.898804 
M118.529236,208.103653 
	C114.626709,193.571747 107.323547,181.153824 95.824898,171.289810 
	C75.129158,153.536163 49.060356,159.083694 37.524624,183.736084 
	C25.076345,210.338638 35.056435,249.874390 58.755955,267.843048 
	C80.882797,284.619354 105.350365,278.394745 116.441414,252.956696 
	C122.683853,238.639236 122.203323,223.804611 118.529236,208.103653 
z"/>
<path fill="#FED7CE" opacity="1.000000" stroke="none" 
	d="
M473.066162,134.626038 
	C472.122711,135.341766 471.288330,135.903244 470.375183,136.100891 
	C461.949158,137.924469 460.355865,144.048386 459.886719,151.518723 
	C459.412201,159.074005 458.009277,166.570984 456.964783,174.885956 
	C451.981323,185.833679 447.046143,195.988937 441.824585,205.846848 
	C439.752106,205.387894 437.940033,204.945999 436.184113,205.109055 
	C422.115692,206.415268 408.632385,204.575027 395.977142,197.981445 
	C401.643707,190.855606 407.309448,183.729111 412.977448,176.604385 
	C414.309814,174.929611 415.649719,173.260864 417.104492,170.932724 
	C417.863953,169.176514 418.505096,168.076935 419.528961,166.976715 
	C422.957367,165.814514 426.239136,165.051132 429.002197,163.412842 
	C435.866150,159.342987 443.221405,155.720047 447.157990,147.973175 
	C447.186798,147.942337 447.084778,147.960098 446.635620,148.028625 
	C445.159668,148.742279 444.045990,149.432587 442.899628,150.063477 
	C435.588562,154.087112 428.270294,158.097626 420.541016,162.069763 
	C418.892212,162.351944 417.672577,162.767380 416.418671,162.986420 
	C410.005341,164.106766 406.323456,159.500687 402.081665,156.078445 
	C400.199036,153.609787 398.434814,151.039200 396.413300,148.690063 
	C387.473358,138.301453 387.204468,126.004807 388.368835,113.324562 
	C388.622192,110.565208 388.414490,107.763504 388.271210,104.626869 
	C388.761078,96.691338 388.715118,88.970795 390.224976,81.567566 
	C391.798981,73.850182 396.093231,67.224060 402.645477,61.701355 
	C403.220184,63.658379 403.650146,65.196167 404.122986,66.720634 
	C407.174927,76.560135 413.319122,83.536156 423.113068,87.068451 
	C429.520386,89.379318 435.855652,91.978371 442.407806,93.774933 
	C449.262390,95.654427 451.202240,100.561394 452.019928,106.663986 
	C452.593628,110.945740 453.073547,115.265236 454.054932,119.460365 
	C455.114563,123.990082 456.950775,124.453407 460.685364,121.628441 
	C462.410248,120.323624 464.058441,118.906067 465.853912,117.708206 
	C469.501434,115.274696 473.218353,114.765038 477.338989,118.272949 
	C477.809357,121.891945 477.830627,124.969505 477.851929,128.047089 
	C476.280853,130.132401 474.709778,132.217712 473.066162,134.626038 
M426.849396,99.350098 
	C429.399963,98.188828 431.950531,97.027557 434.501129,95.866287 
	C434.235016,95.299301 433.968933,94.732315 433.702820,94.165329 
	C429.026581,95.838211 424.350342,97.511093 419.674103,99.183975 
	C419.791687,99.730949 419.909271,100.277924 420.026855,100.824898 
	C422.059906,100.440331 424.092957,100.055763 426.849396,99.350098 
M397.786926,99.944984 
	C400.159088,100.182838 402.531219,100.420692 404.903381,100.658539 
	C404.963837,100.152687 405.024261,99.646835 405.084717,99.140976 
	C400.822632,97.751053 396.560547,96.361130 392.298492,94.971199 
	C392.042206,95.335945 391.785950,95.700699 391.529694,96.065445 
	C393.365906,97.287010 395.202087,98.508575 397.786926,99.944984 
M427.261597,108.912231 
	C424.950806,108.912231 422.640015,108.912231 419.190369,108.912231 
	C425.559265,112.541306 431.186371,111.869522 434.595795,107.101479 
	C431.917572,107.800148 429.980743,108.305420 427.261597,108.912231 
M407.407318,136.980087 
	C404.010315,139.252991 404.000122,140.000931 407.511566,142.567978 
	C407.727783,141.419327 407.924652,140.373535 408.121490,139.327744 
	C408.564606,139.336487 409.007690,139.345230 409.450806,139.353973 
	C409.919983,141.433960 410.389191,143.513947 410.887451,145.722794 
	C414.308472,142.000854 413.541229,139.742767 407.407318,136.980087 
M394.690491,108.015862 
	C398.818085,110.744102 399.367767,110.680397 401.809265,107.190788 
	C397.836426,103.706024 396.103516,103.752907 394.690491,108.015862 
M465.672180,124.042526 
	C465.602264,124.851891 465.532349,125.661247 465.436401,126.771904 
	C468.838654,125.040833 471.727081,123.571190 474.615479,122.101555 
	C474.388031,121.571976 474.160583,121.042397 473.933136,120.512817 
	C471.350098,121.521141 468.767090,122.529465 465.672180,124.042526 
z"/>
<path fill="#FEF9F1" opacity="1.000000" stroke="none" 
	d="
M333.184723,42.950966 
	C341.112579,43.316044 349.040436,43.681122 357.644287,44.077332 
	C356.819244,54.948795 355.986023,65.428894 355.241608,75.915298 
	C354.760559,82.691811 354.479492,89.482697 353.981384,96.257782 
	C353.435669,103.680580 352.646179,111.086281 352.163879,118.512482 
	C351.977600,121.380768 350.660492,122.222054 348.029358,122.030655 
	C334.657440,121.057922 321.283752,120.107445 307.906525,119.211296 
	C299.838837,118.670837 291.763519,118.243660 283.312408,117.743134 
	C285.196014,91.491013 287.049469,65.658760 288.922089,39.559696 
	C298.283905,40.069942 307.002014,40.545105 316.243408,41.408035 
	C317.154327,46.368187 319.614624,49.335823 324.137024,49.749058 
	C328.898346,50.184116 331.856659,47.469460 333.184723,42.950966 
M336.150299,76.664352 
	C338.190338,73.988907 340.230377,71.313454 342.511780,68.321426 
	C343.112793,72.266556 343.600464,75.467644 344.088135,78.668732 
	C344.764832,78.570877 345.441498,78.473030 346.118195,78.375175 
	C345.751770,73.441002 345.385376,68.506828 344.985565,63.123219 
	C339.545380,63.819324 334.908020,64.412704 330.270691,65.006081 
	C330.333893,65.630363 330.397095,66.254646 330.460327,66.878937 
	C333.674377,66.711319 336.888428,66.543694 340.772736,66.341125 
	C335.234680,73.709419 330.178528,80.436516 324.849152,87.527153 
	C321.416504,85.038925 318.235718,82.974083 315.342560,80.563980 
	C312.778931,78.428429 311.017212,78.920395 309.171814,81.404221 
	C305.998779,85.674896 302.682495,89.838860 299.456512,94.070580 
	C296.937195,97.375259 294.463623,100.714775 291.969696,104.038811 
	C292.490570,104.455292 293.011444,104.871780 293.532288,105.288261 
	C299.812683,97.438477 306.093048,89.588692 312.448669,81.644859 
	C316.160858,84.352631 319.290924,86.529320 322.297821,88.864662 
	C324.491211,90.568192 326.053162,90.309235 327.666779,88.027496 
	C330.258179,84.363152 333.060272,80.847786 336.150299,76.664352 
z"/>
<path fill="#FEF9F1" opacity="1.000000" stroke="none" 
	d="
M126.144783,45.031235 
	C133.229843,45.673172 140.306351,46.454765 147.404114,46.888866 
	C150.275772,47.064499 151.183746,48.224411 151.017197,50.897182 
	C150.594391,57.681709 150.376633,64.480446 149.867126,71.257729 
	C149.395966,77.524971 148.527222,83.762352 148.057632,90.029678 
	C147.277802,100.437370 146.580765,110.853737 146.065628,121.277161 
	C145.927383,124.074379 144.983017,125.197998 142.210739,125.009834 
	C130.802872,124.235542 119.390114,123.534042 107.981194,122.775085 
	C99.390427,122.203613 90.809998,121.386810 82.210609,121.073532 
	C78.041695,120.921661 76.598106,119.684166 77.287033,115.354980 
	C78.195061,109.649010 78.579140,103.846375 78.944923,98.069878 
	C80.034096,80.869827 81.044479,63.664433 81.982918,46.455521 
	C82.147865,43.430691 82.879982,41.871094 86.418488,42.232136 
	C94.154335,43.021439 101.928238,43.437637 110.237770,44.371193 
	C111.573219,48.546165 113.780602,50.841557 117.759453,51.135990 
	C122.249931,51.468285 124.684349,48.900223 126.144783,45.031235 
M108.534271,73.928047 
	C117.838409,74.640411 127.142548,75.352776 136.446686,76.065140 
	C136.485458,75.352821 136.524216,74.640503 136.562988,73.928185 
	C121.582092,72.678108 106.601196,71.428024 91.620300,70.177948 
	C91.518250,70.861214 91.416191,71.544472 91.314133,72.227737 
	C96.742371,72.797112 102.170609,73.366493 108.534271,73.928047 
M94.255928,82.685387 
	C107.964935,83.713562 121.673943,84.741730 135.382950,85.769905 
	C135.427155,85.014198 135.471375,84.258499 135.515579,83.502792 
	C120.562149,82.318474 105.608719,81.134148 90.655296,79.949821 
	C90.589020,80.416611 90.522736,80.883408 90.456459,81.350197 
	C91.467621,81.680199 92.478783,82.010193 94.255928,82.685387 
M108.664421,61.906391 
	C103.429817,61.520073 98.195206,61.133755 92.960602,60.747440 
	C92.927216,61.361294 92.893822,61.975151 92.860435,62.589005 
	C107.684990,63.949631 122.467102,65.955109 137.379807,65.976685 
	C137.423874,65.381538 137.467926,64.786392 137.511978,64.191246 
	C128.207748,63.427925 118.903503,62.664604 108.664421,61.906391 
M97.734810,100.058350 
	C96.982483,100.278999 96.230156,100.499641 95.477829,100.720291 
	C95.829247,101.379501 96.161293,102.598869 96.535057,102.611801 
	C100.537766,102.750229 104.547066,102.697922 108.554558,102.697922 
	C108.547310,102.292915 108.540062,101.887901 108.532814,101.482895 
	C105.209938,101.030670 101.887054,100.578445 97.734810,100.058350 
z"/>
<path fill="#FEF9F1" opacity="1.000000" stroke="none" 
	d="
M227.991623,80.968994 
	C233.207092,80.012466 238.398300,78.839569 243.654922,78.250015 
	C244.985596,78.100777 247.629227,79.629944 247.804352,80.694649 
	C250.947357,99.803528 253.803360,118.959602 256.827148,138.802917 
	C251.084000,139.862762 245.449539,141.000061 239.780716,141.927246 
	C229.644333,143.585175 219.476135,145.049332 209.343307,146.727798 
	C203.927933,147.624817 202.776901,146.627106 201.962830,141.107712 
	C199.593567,125.044243 197.087738,108.999573 194.460739,92.976173 
	C193.463165,86.891586 193.872986,85.906357 199.811066,85.090889 
	C203.585953,84.572487 207.395462,84.306152 211.889587,84.150932 
	C214.424576,87.728645 217.241684,89.484680 221.045914,88.854080 
	C225.360214,88.138939 227.151688,84.901276 227.991623,80.968994 
M239.533417,95.809341 
	C236.841461,94.358307 234.421127,94.997101 233.527649,97.747116 
	C233.064194,99.173592 233.821564,101.874443 234.965271,102.699463 
	C236.118011,103.530991 238.895706,103.411949 240.138977,102.538589 
	C242.555878,100.840805 242.258652,98.348572 239.533417,95.809341 
M208.373001,113.880554 
	C207.891434,115.997017 206.924515,118.178299 207.193741,120.194504 
	C207.286942,120.892441 210.827957,122.008774 212.105652,121.425598 
	C213.415710,120.827652 214.975250,117.483757 214.510681,116.920181 
	C213.221848,115.356689 210.936890,114.614311 208.373001,113.880554 
M228.920593,115.372787 
	C227.955963,113.983910 227.094345,111.552879 226.003082,111.445000 
	C224.270264,111.273705 221.102219,112.364815 220.858780,113.444473 
	C220.479568,115.126076 221.492111,118.031898 222.897186,119.015213 
	C225.788742,121.038811 227.649078,118.816437 228.920593,115.372787 
M210.798904,100.505516 
	C208.061890,99.437401 205.567688,99.820770 204.833984,102.861374 
	C204.498596,104.251282 205.351654,106.660118 206.479675,107.462364 
	C207.578720,108.244003 210.210754,108.215805 211.296082,107.392059 
	C213.584763,105.655022 213.692078,103.158340 210.798904,100.505516 
M235.243332,110.949348 
	C234.689423,113.524483 234.479889,116.228645 237.760376,116.813812 
	C239.222275,117.074593 241.636688,116.332947 242.356995,115.225548 
	C243.116974,114.057137 242.736298,110.566536 242.222015,110.427467 
	C240.170197,109.872635 237.872299,110.227859 235.243332,110.949348 
M220.307724,105.112068 
	C222.325165,104.754662 224.562256,104.789848 226.251083,103.845055 
	C226.919022,103.471382 226.993515,100.314240 226.215256,99.506592 
	C225.202835,98.455971 222.855652,97.767616 221.465256,98.187958 
	C218.050659,99.220268 218.425140,101.920708 220.307724,105.112068 
z"/>
<path fill="#FED7CF" opacity="1.000000" stroke="none" 
	d="
M279.695068,218.925049 
	C280.294769,226.385010 279.572235,233.193237 271.371399,236.550079 
	C268.942474,234.221695 266.989594,232.123947 265.036743,230.026215 
	C260.813385,227.699356 256.655609,225.241547 252.347321,223.084305 
	C248.424561,221.120132 244.338409,219.482239 240.507111,217.373611 
	C243.359848,213.644760 246.029770,210.242828 248.923965,206.555130 
	C249.358185,206.926361 250.346680,207.771423 252.118240,209.285950 
	C252.118240,203.408310 252.118240,198.308044 252.176208,192.781982 
	C251.829208,190.476227 251.424271,188.596252 251.006500,186.515640 
	C250.993698,186.315018 250.951431,185.915176 250.951431,185.915176 
	C250.968460,184.773666 250.955322,183.630753 251.007721,182.490875 
	C251.242096,177.391098 252.677643,176.554688 257.655640,179.316147 
	C258.669617,181.944595 259.350067,184.046814 260.029541,186.521362 
	C260.694672,188.441025 261.360748,189.988358 262.026031,191.889923 
	C262.701935,194.181656 263.378632,196.119186 264.055328,198.056702 
	C266.406067,207.008148 273.010742,212.803177 279.695068,218.925049 
M249.783356,211.131683 
	C249.306702,211.284073 248.531235,211.317139 248.413208,211.612732 
	C248.135132,212.309174 248.170502,213.130798 248.079071,213.901764 
	C248.283905,213.965027 248.488724,214.028290 248.693558,214.091537 
	C249.079651,213.295883 249.465759,212.500214 249.783356,211.131683 
z"/>
<path fill="#99C5DC" opacity="1.000000" stroke="none" 
	d="
M131.474182,259.001709 
	C135.880081,238.513031 135.134109,218.107300 130.010223,197.366425 
	C133.050446,203.329788 136.340195,209.586868 139.004517,216.099777 
	C144.136017,228.643677 148.942444,241.321289 153.794876,253.977509 
	C154.291733,255.273407 154.185745,256.800446 154.216446,258.523499 
	C146.696289,258.881226 139.319168,258.935730 131.474182,259.001709 
z"/>
<path fill="#F7608E" opacity="1.000000" stroke="none" 
	d="
M333.140381,42.557030 
	C331.856659,47.469460 328.898346,50.184116 324.137024,49.749058 
	C319.614624,49.335823 317.154327,46.368187 316.677948,41.414894 
	C318.243347,35.703491 321.417450,32.928932 325.482971,33.259697 
	C329.867371,33.616405 332.484741,36.677422 333.140381,42.557030 
z"/>
<path fill="#F6608E" opacity="1.000000" stroke="none" 
	d="
M227.889053,80.630066 
	C227.151688,84.901276 225.360214,88.138939 221.045914,88.854080 
	C217.241684,89.484680 214.424576,87.728645 212.342575,84.130936 
	C211.854996,77.465736 213.903198,74.046135 218.478745,73.229378 
	C222.517365,72.508476 225.733826,74.948784 227.889053,80.630066 
z"/>
<path fill="#F75E8C" opacity="1.000000" stroke="none" 
	d="
M126.098373,44.637791 
	C124.684349,48.900223 122.249931,51.468285 117.759453,51.135990 
	C113.780602,50.841557 111.573219,48.546165 110.662491,44.373646 
	C111.756111,38.294285 114.309532,35.675735 118.727699,36.003670 
	C123.717499,36.374027 125.864616,39.492455 126.098373,44.637791 
z"/>
<path fill="#000000" opacity="1.000000" stroke="none" 
	d="
M419.146240,166.977356 
	C418.505096,168.076935 417.863953,169.176514 417.089874,170.580200 
	C412.248535,171.477753 407.540161,172.071167 402.442078,172.785461 
	C402.037292,167.605728 402.022217,162.305115 402.044403,156.541473 
	C406.323456,159.500687 410.005341,164.106766 416.418671,162.986420 
	C417.672577,162.767380 418.892212,162.351944 420.433960,162.393753 
	C420.208923,164.166077 419.677612,165.571716 419.146240,166.977356 
z"/>
<path fill="#FCA7A8" opacity="1.000000" stroke="none" 
	d="
M252.118240,193.207764 
	C252.118240,198.308044 252.118240,203.408310 252.118240,209.285950 
	C250.346680,207.771423 249.358185,206.926361 248.923965,206.555130 
	C246.029770,210.242828 243.359848,213.644760 240.312332,217.094391 
	C238.629532,216.330734 237.324326,215.519409 236.326080,214.412354 
	C238.011414,214.241364 239.389771,214.366089 240.768143,214.490814 
	C240.870667,214.098648 240.973206,213.706467 241.075729,213.314285 
	C239.254501,211.812271 237.433273,210.310272 235.612045,208.808258 
	C237.832718,208.538177 239.505524,209.298691 241.240479,209.487213 
	C242.306274,209.603027 243.467163,208.843765 244.585358,208.477448 
	C243.960556,207.615753 243.482254,206.572479 242.682693,205.927399 
	C240.531464,204.191803 238.243088,202.626175 236.004578,200.996613 
	C236.000000,201.000122 235.992661,201.009613 236.391663,200.992615 
	C240.690445,201.979767 244.590210,202.983917 248.489960,203.988052 
	C248.689087,203.462524 248.888214,202.937012 249.087357,202.411484 
	C246.407028,200.179855 243.726715,197.948242 241.332306,195.507385 
	C245.118240,194.601349 248.618240,193.904556 252.118240,193.207764 
z"/>
<path fill="#FED5CD" opacity="1.000000" stroke="none" 
	d="
M241.046387,195.716629 
	C243.726715,197.948242 246.407028,200.179855 249.087357,202.411484 
	C248.888214,202.937012 248.689087,203.462524 248.489960,203.988052 
	C244.590210,202.983917 240.690445,201.979767 236.348969,200.872009 
	C235.907257,200.768387 235.591614,200.747040 235.591614,200.747040 
	C235.591614,200.747040 236.009155,200.993088 236.009155,200.993088 
	C238.243088,202.626175 240.531464,204.191803 242.682693,205.927399 
	C243.482254,206.572479 243.960556,207.615753 244.585358,208.477448 
	C243.467163,208.843765 242.306274,209.603027 241.240479,209.487213 
	C239.505524,209.298691 237.832718,208.538177 235.612045,208.808258 
	C237.433273,210.310272 239.254501,211.812271 241.075729,213.314285 
	C240.973206,213.706467 240.870667,214.098648 240.768143,214.490814 
	C239.389771,214.366089 238.011414,214.241364 236.259232,214.077637 
	C234.703705,210.177017 233.422150,206.341782 232.389725,202.440643 
	C231.980652,200.894897 232.124985,199.202713 232.021347,197.023285 
	C232.160339,196.187973 232.370987,195.985168 233.121109,195.962433 
	C236.072083,195.948166 238.559235,195.832397 241.046387,195.716629 
z"/>
<path fill="#FDD5CD" opacity="1.000000" stroke="none" 
	d="
M250.592285,185.887604 
	C250.951431,185.915176 250.993698,186.315018 250.537216,186.555298 
	C243.969162,186.951157 237.857605,187.106750 231.342499,187.225616 
	C229.317917,187.202637 227.696854,187.216339 226.075790,187.230042 
	C224.943436,185.476761 223.811066,183.723465 222.678696,181.970169 
	C225.094254,181.382446 227.694901,179.911057 229.890991,180.371063 
	C236.753845,181.808578 243.463867,183.975693 250.592285,185.887604 
z"/>
<path fill="#FECE09" opacity="1.000000" stroke="none" 
	d="
M225.739563,187.353485 
	C227.696854,187.216339 229.317917,187.202637 231.397186,187.624237 
	C232.122681,190.660034 232.389984,193.260483 232.657288,195.860947 
	C232.370987,195.985168 232.160339,196.187973 231.973007,196.687286 
	C225.423553,199.062729 219.876297,196.246841 214.093292,193.756821 
	C218.034897,191.568237 221.719131,189.522568 225.739563,187.353485 
z"/>
<path fill="#FDF9F1" opacity="1.000000" stroke="none" 
	d="
M260.030518,186.149033 
	C259.350067,184.046814 258.669617,181.944595 257.961487,179.476715 
	C261.773926,178.854584 265.625092,178.325317 269.448730,178.479233 
	C270.926788,178.538712 273.404816,180.019821 273.531891,181.080383 
	C273.712097,182.584183 272.139191,184.298050 270.552948,186.028564 
	C266.537140,186.139664 263.283844,186.144348 260.030518,186.149033 
z"/>
<path fill="#FEF8F0" opacity="1.000000" stroke="none" 
	d="
M264.467834,198.043884 
	C263.378632,196.119186 262.701935,194.181656 262.429077,191.792267 
	C265.597107,190.534088 268.361359,189.727768 271.125580,188.921448 
	C272.724182,190.243286 274.322754,191.565140 275.921356,192.886993 
	C274.335846,194.252853 272.938568,196.024628 271.112366,196.871353 
	C269.255066,197.732513 266.975189,197.682236 264.467834,198.043884 
z"/>
<path fill="#F7608D" opacity="1.000000" stroke="none" 
	d="
M271.109100,188.585510 
	C268.361359,189.727768 265.597107,190.534088 262.429871,191.438049 
	C261.360748,189.988358 260.694672,188.441025 260.029541,186.521362 
	C263.283844,186.144348 266.537140,186.139664 270.216705,186.215439 
	C270.792816,186.947128 270.942719,187.598343 271.109100,188.585510 
z"/>
<path fill="#D93E77" opacity="1.000000" stroke="none" 
	d="
M264.880127,230.380096 
	C266.989594,232.123947 268.942474,234.221695 271.041504,236.622910 
	C269.357727,237.283020 267.527832,237.639679 265.288147,238.006989 
	C264.826782,235.589767 264.775146,233.161880 264.880127,230.380096 
z"/>
<path fill="#99C5DC" opacity="1.000000" stroke="none" 
	d="
M129.807373,196.007736 
	C129.595383,195.993607 129.394333,195.719238 129.210388,195.182709 
	C129.424423,195.196198 129.621368,195.471832 129.807373,196.007736 
z"/>
<path fill="#D83572" opacity="1.000000" stroke="none" 
	d="
M346.018402,233.012741 
	C345.668762,242.555695 345.378510,252.101562 344.909302,261.638641 
	C344.833679,263.175873 343.960785,264.673889 343.263000,266.510376 
	C336.891724,271.549347 330.905823,276.555634 324.452637,280.861633 
	C321.359680,282.925476 317.382294,283.663818 313.406982,284.927917 
	C325.017487,278.604065 330.230652,266.936218 335.830048,255.729263 
	C339.445038,248.493988 342.262207,240.860077 345.717834,233.201630 
	C345.998718,232.998444 346.018402,233.012741 346.018402,233.012741 
z"/>
<path fill="#FFF9F0" opacity="1.000000" stroke="none" 
	d="
M395.712585,198.190140 
	C408.632385,204.575027 422.115692,206.415268 436.184113,205.109055 
	C437.940033,204.945999 439.752106,205.387894 441.701019,206.164276 
	C436.745636,214.161896 431.762726,221.643265 426.477112,228.904266 
	C418.734589,239.540359 412.521942,251.081070 410.218140,263.950043 
	C407.621918,278.452576 406.045197,293.217651 405.249268,307.934723 
	C404.705353,317.991547 406.257751,328.161774 406.872925,338.281281 
	C391.550140,341.656647 376.233521,342.683350 360.563965,338.095154 
	C361.463989,291.098846 367.323273,245.253998 391.958893,203.857361 
	C393.062714,202.002594 394.282349,200.216766 395.712585,198.190140 
z"/>
<path fill="#D83572" opacity="1.000000" stroke="none" 
	d="
M345.989807,232.989639 
	C346.107025,232.577988 346.233154,232.175125 346.359283,231.772278 
	C346.373993,232.105713 346.388702,232.439133 346.210907,232.892654 
	C346.018402,233.012741 345.998718,232.998444 345.989807,232.989639 
z"/>
<path fill="#7B5858" opacity="1.000000" stroke="none" 
	d="
M455.807922,51.287144 
	C464.609406,50.740395 470.219513,53.164394 472.105255,58.470398 
	C472.697174,60.135944 472.882446,62.905697 471.930756,63.887260 
	C470.999847,64.847412 468.070374,64.814865 466.567017,64.086014 
	C463.011749,62.362320 459.574005,60.224457 456.501160,57.743267 
	C454.724182,56.308407 452.690338,54.044662 455.807922,51.287144 
z"/>
<path fill="#462626" opacity="1.000000" stroke="none" 
	d="
M478.210449,128.018524 
	C477.830627,124.969505 477.809357,121.891945 477.647339,118.450943 
	C481.239105,116.008888 484.971588,113.930275 489.015137,111.678436 
	C487.512054,117.998032 485.050537,124.125664 478.210449,128.018524 
z"/>
<path fill="#F75B8A" opacity="1.000000" stroke="none" 
	d="
M407.003937,338.774841 
	C406.257751,328.161774 404.705353,317.991547 405.249268,307.934723 
	C406.045197,293.217651 407.621918,278.452576 410.218140,263.950043 
	C412.521942,251.081070 418.734589,239.540359 426.477112,228.904266 
	C431.762726,221.643265 436.745636,214.161896 441.987427,206.461639 
	C447.046143,195.988937 451.981323,185.833679 457.022339,175.318405 
	C469.551941,183.567200 481.842865,192.377594 494.459595,200.693680 
	C500.155060,204.447739 503.377106,209.723679 503.806213,215.886902 
	C504.749359,229.433914 505.175446,243.064301 504.853973,256.637939 
	C504.562653,268.937622 503.622192,281.304840 501.716095,293.445740 
	C500.859283,298.903259 498.169250,305.221222 494.200958,308.825867 
	C482.485016,319.468231 469.759308,329.006531 457.288605,338.798370 
	C456.102631,339.729614 453.933685,339.408936 452.099365,338.957520 
	C455.683228,330.740479 452.140015,325.073395 442.906799,323.868683 
	C437.779388,322.816193 435.809052,325.080414 436.866211,330.342773 
	C434.183289,332.143219 431.838837,334.247711 429.114899,335.028748 
	C421.971558,337.076935 414.662720,338.548035 407.419861,340.249115 
	C407.324890,339.922211 407.229919,339.595276 407.003937,338.774841 
M452.056427,280.646820 
	C443.615936,291.185974 438.559082,302.627869 442.538940,316.880890 
	C448.236267,311.539551 453.327972,305.792664 459.366089,301.324707 
	C469.361237,293.928711 472.740265,284.537506 471.118195,272.517242 
	C470.415070,267.306610 471.000275,261.922119 471.000275,256.539490 
	C464.576569,264.685883 458.522369,272.363678 452.056427,280.646820 
z"/>
<path fill="#FED5CD" opacity="1.000000" stroke="none" 
	d="
M407.132599,340.475983 
	C414.662720,338.548035 421.971558,337.076935 429.114899,335.028748 
	C431.838837,334.247711 434.183289,332.143219 437.158142,330.191681 
	C439.465149,327.877380 441.314697,326.013336 443.164276,324.149261 
	C452.140015,325.073395 455.683228,330.740479 451.918549,338.618500 
	C451.276794,339.090698 450.694183,339.190002 449.960022,339.551331 
	C443.842285,342.686707 441.193085,347.623138 439.045898,353.846161 
	C436.213593,362.055054 431.650391,369.677460 427.635895,377.451050 
	C427.236176,378.225067 425.482605,378.299957 424.357391,378.699310 
	C424.220734,377.508881 423.669342,376.170807 424.030090,375.157440 
	C424.891083,372.738617 426.182281,370.472931 427.299744,368.145416 
	C426.949921,367.906952 426.600098,367.668488 426.250244,367.429993 
	C422.696869,371.576569 419.143524,375.723114 415.294922,380.046509 
	C411.518951,379.055511 413.131409,376.778717 414.173004,374.144562 
	C416.119751,370.804810 417.692261,368.028198 419.413391,365.126953 
	C419.512512,364.787811 419.463043,364.573212 419.413605,364.358643 
	C419.235870,364.528107 419.058105,364.697540 418.589539,365.024689 
	C416.507568,367.275055 414.716400,369.367737 412.925232,371.460388 
	C410.968231,373.490631 409.101501,375.621948 407.003967,377.494781 
	C406.296448,378.126495 405.003510,378.102570 403.978149,378.378296 
	C403.764587,377.179047 403.002533,375.698486 403.445038,374.835754 
	C404.566864,372.648651 406.243561,370.748962 407.670654,368.714935 
	C409.223389,366.501892 410.745270,364.267151 412.280609,362.041870 
	C411.924957,361.665466 411.569336,361.289093 411.213684,360.912689 
	C409.104614,362.482147 407.004822,364.064331 404.883057,365.616455 
	C403.544586,366.595612 402.278900,367.793213 400.780518,368.394012 
	C399.738922,368.811646 398.357361,368.381439 397.127686,368.330017 
	C397.361481,367.016754 397.135559,365.247864 397.907990,364.468445 
	C401.410706,360.934021 405.195099,357.678711 409.365417,353.911499 
	C412.046967,350.821960 414.241241,348.143951 416.435547,345.465942 
	C416.105713,345.001709 415.775909,344.537445 415.446075,344.073181 
	C412.998596,344.715118 410.551086,345.357056 408.103607,345.998993 
	C406.276489,345.420929 404.449371,344.842896 402.622284,344.264832 
	C402.649811,343.764771 402.677338,343.264709 402.704865,342.764648 
	C404.085052,342.077393 405.465210,341.390106 407.132599,340.475983 
z"/>
<path fill="#F26790" opacity="1.000000" stroke="none" 
	d="
M408.176392,346.384125 
	C410.551086,345.357056 412.998596,344.715118 415.446075,344.073181 
	C415.775909,344.537445 416.105713,345.001709 416.435547,345.465942 
	C414.241241,348.143951 412.046967,350.821960 409.593384,353.635925 
	C408.972504,351.437683 408.610840,349.103455 408.176392,346.384125 
z"/>
<path fill="#F16E93" opacity="1.000000" stroke="none" 
	d="
M413.038971,371.787109 
	C414.716400,369.367737 416.507568,367.275055 418.684631,365.121857 
	C419.070496,365.061340 419.264832,365.251587 419.264832,365.251587 
	C417.692261,368.028198 416.119751,370.804810 414.285767,373.784729 
	C413.733734,373.363281 413.443207,372.738556 413.038971,371.787109 
z"/>
<path fill="#02B2FD" opacity="1.000000" stroke="none" 
	d="
M118.652634,208.498016 
	C122.203323,223.804611 122.683853,238.639236 116.441414,252.956696 
	C105.350365,278.394745 80.882797,284.619354 58.755955,267.843048 
	C35.056435,249.874390 25.076345,210.338638 37.524624,183.736084 
	C49.060356,159.083694 75.129158,153.536163 95.824898,171.289810 
	C107.323547,181.153824 114.626709,193.571747 118.652634,208.498016 
M98.627655,193.917801 
	C97.096672,192.161560 95.680130,190.287857 94.016953,188.667282 
	C77.828133,172.893295 56.632000,178.448685 50.908581,200.331421 
	C46.099190,218.719513 50.813602,235.203430 64.281105,248.434814 
	C80.186043,264.060883 101.324364,257.892029 106.955078,236.316071 
	C110.888161,221.245148 107.648277,207.316330 98.627655,193.917801 
z"/>
<path fill="#FCA7A7" opacity="1.000000" stroke="none" 
	d="
M419.528992,166.976730 
	C419.677612,165.571716 420.208923,164.166077 420.847351,162.436432 
	C428.270294,158.097626 435.588562,154.087112 442.899628,150.063477 
	C444.045990,149.432587 445.159668,148.742279 446.645508,148.040573 
	C447.002563,148.001724 447.027130,148.021759 447.027130,148.021759 
	C443.221405,155.720047 435.866150,159.342987 429.002197,163.412842 
	C426.239136,165.051132 422.957367,165.814514 419.528992,166.976730 
z"/>
<path fill="#785A58" opacity="1.000000" stroke="none" 
	d="
M426.487701,99.510651 
	C424.092957,100.055763 422.059906,100.440331 420.026855,100.824898 
	C419.909271,100.277924 419.791687,99.730949 419.674103,99.183975 
	C424.350342,97.511093 429.026581,95.838211 433.702820,94.165329 
	C433.968933,94.732315 434.235016,95.299301 434.501129,95.866287 
	C431.950531,97.027557 429.399963,98.188828 426.487701,99.510651 
z"/>
<path fill="#765957" opacity="1.000000" stroke="none" 
	d="
M397.412598,99.837563 
	C395.202087,98.508575 393.365906,97.287010 391.529694,96.065445 
	C391.785950,95.700699 392.042206,95.335945 392.298492,94.971199 
	C396.560547,96.361130 400.822632,97.751053 405.084717,99.140976 
	C405.024261,99.646835 404.963837,100.152687 404.903381,100.658539 
	C402.531219,100.420692 400.159088,100.182838 397.412598,99.837563 
z"/>
<path fill="#1D1817" opacity="1.000000" stroke="none" 
	d="
M427.652771,108.861458 
	C429.980743,108.305420 431.917572,107.800148 434.595795,107.101479 
	C431.186371,111.869522 425.559265,112.541306 419.190369,108.912231 
	C422.640015,108.912231 424.950806,108.912231 427.652771,108.861458 
z"/>
<path fill="#FCA9A8" opacity="1.000000" stroke="none" 
	d="
M407.801788,136.991425 
	C413.541229,139.742767 414.308472,142.000854 410.887451,145.722794 
	C410.389191,143.513947 409.919983,141.433960 409.450806,139.353973 
	C409.007690,139.345230 408.564606,139.336487 408.121490,139.327744 
	C407.924652,140.373535 407.727783,141.419327 407.511566,142.567978 
	C404.000122,140.000931 404.010315,139.252991 407.801788,136.991425 
z"/>
<path fill="#1A1615" opacity="1.000000" stroke="none" 
	d="
M394.510193,107.704498 
	C396.103516,103.752907 397.836426,103.706024 401.809265,107.190788 
	C399.367767,110.680397 398.818085,110.744102 394.510193,107.704498 
z"/>
<path fill="#FDADAB" opacity="1.000000" stroke="none" 
	d="
M465.928101,123.790154 
	C468.767090,122.529465 471.350098,121.521141 473.933136,120.512817 
	C474.160583,121.042397 474.388031,121.571976 474.615479,122.101555 
	C471.727081,123.571190 468.838654,125.040833 465.436401,126.771904 
	C465.532349,125.661247 465.602264,124.851891 465.928101,123.790154 
z"/>
<path fill="#FCA7A7" opacity="1.000000" stroke="none" 
	d="
M446.992645,147.989777 
	C447.084778,147.960098 447.186798,147.942337 447.157990,147.973175 
	C447.027130,148.021759 447.002563,148.001724 446.992645,147.989777 
z"/>
<path fill="#9FC3DA" opacity="1.000000" stroke="none" 
	d="
M335.961792,76.966904 
	C333.060272,80.847786 330.258179,84.363152 327.666779,88.027496 
	C326.053162,90.309235 324.491211,90.568192 322.297821,88.864662 
	C319.290924,86.529320 316.160858,84.352631 312.448669,81.644859 
	C306.093048,89.588692 299.812683,97.438477 293.532288,105.288261 
	C293.011444,104.871780 292.490570,104.455292 291.969696,104.038811 
	C294.463623,100.714775 296.937195,97.375259 299.456512,94.070580 
	C302.682495,89.838860 305.998779,85.674896 309.171814,81.404221 
	C311.017212,78.920395 312.778931,78.428429 315.342560,80.563980 
	C318.235718,82.974083 321.416504,85.038925 324.849152,87.527153 
	C330.178528,80.436516 335.234680,73.709419 340.772736,66.341125 
	C336.888428,66.543694 333.674377,66.711319 330.460327,66.878937 
	C330.397095,66.254646 330.333893,65.630363 330.270691,65.006081 
	C334.908020,64.412704 339.545380,63.819324 344.985565,63.123219 
	C345.385376,68.506828 345.751770,73.441002 346.118195,78.375175 
	C345.441498,78.473030 344.764832,78.570877 344.088135,78.668732 
	C343.600464,75.467644 343.112793,72.266556 342.511780,68.321426 
	C340.230377,71.313454 338.190338,73.988907 335.961792,76.966904 
z"/>
<path fill="#9CC1DA" opacity="1.000000" stroke="none" 
	d="
M108.066559,73.931961 
	C102.170609,73.366493 96.742371,72.797112 91.314133,72.227737 
	C91.416191,71.544472 91.518250,70.861214 91.620300,70.177948 
	C106.601196,71.428024 121.582092,72.678108 136.562988,73.928185 
	C136.524216,74.640503 136.485458,75.352821 136.446686,76.065140 
	C127.142548,75.352776 117.838409,74.640411 108.066559,73.931961 
z"/>
<path fill="#9BC0D9" opacity="1.000000" stroke="none" 
	d="
M93.872940,82.512787 
	C92.478783,82.010193 91.467621,81.680199 90.456459,81.350197 
	C90.522736,80.883408 90.589020,80.416611 90.655296,79.949821 
	C105.608719,81.134148 120.562149,82.318474 135.515579,83.502792 
	C135.471375,84.258499 135.427155,85.014198 135.382950,85.769905 
	C121.673943,84.741730 107.964935,83.713562 93.872940,82.512787 
z"/>
<path fill="#9BC0D9" opacity="1.000000" stroke="none" 
	d="
M109.131836,61.903839 
	C118.903503,62.664604 128.207748,63.427925 137.511978,64.191246 
	C137.467926,64.786392 137.423874,65.381538 137.379807,65.976685 
	C122.467102,65.955109 107.684990,63.949631 92.860435,62.589005 
	C92.893822,61.975151 92.927216,61.361294 92.960602,60.747440 
	C98.195206,61.133755 103.429817,61.520073 109.131836,61.903839 
z"/>
<path fill="#9CC1DA" opacity="1.000000" stroke="none" 
	d="
M98.149490,100.092285 
	C101.887054,100.578445 105.209938,101.030670 108.532814,101.482895 
	C108.540062,101.887901 108.547310,102.292915 108.554558,102.697922 
	C104.547066,102.697922 100.537766,102.750229 96.535057,102.611801 
	C96.161293,102.598869 95.829247,101.379501 95.477829,100.720291 
	C96.230156,100.499641 96.982483,100.278999 98.149490,100.092285 
z"/>
<path fill="#A7C8DC" opacity="1.000000" stroke="none" 
	d="
M239.848206,96.014282 
	C242.258652,98.348572 242.555878,100.840805 240.138977,102.538589 
	C238.895706,103.411949 236.118011,103.530991 234.965271,102.699463 
	C233.821564,101.874443 233.064194,99.173592 233.527649,97.747116 
	C234.421127,94.997101 236.841461,94.358307 239.848206,96.014282 
z"/>
<path fill="#A8C8DD" opacity="1.000000" stroke="none" 
	d="
M208.709274,113.714020 
	C210.936890,114.614311 213.221848,115.356689 214.510681,116.920181 
	C214.975250,117.483757 213.415710,120.827652 212.105652,121.425598 
	C210.827957,122.008774 207.286942,120.892441 207.193741,120.194504 
	C206.924515,118.178299 207.891434,115.997017 208.709274,113.714020 
z"/>
<path fill="#A8C8DC" opacity="1.000000" stroke="none" 
	d="
M228.865631,115.748833 
	C227.649078,118.816437 225.788742,121.038811 222.897186,119.015213 
	C221.492111,118.031898 220.479568,115.126076 220.858780,113.444473 
	C221.102219,112.364815 224.270264,111.273705 226.003082,111.445000 
	C227.094345,111.552879 227.955963,113.983910 228.865631,115.748833 
z"/>
<path fill="#9EC2DA" opacity="1.000000" stroke="none" 
	d="
M211.113556,100.732048 
	C213.692078,103.158340 213.584763,105.655022 211.296082,107.392059 
	C210.210754,108.215805 207.578720,108.244003 206.479675,107.462364 
	C205.351654,106.660118 204.498596,104.251282 204.833984,102.861374 
	C205.567688,99.820770 208.061890,99.437401 211.113556,100.732048 
z"/>
<path fill="#9FC3DA" opacity="1.000000" stroke="none" 
	d="
M235.454407,110.597794 
	C237.872299,110.227859 240.170197,109.872635 242.222015,110.427467 
	C242.736298,110.566536 243.116974,114.057137 242.356995,115.225548 
	C241.636688,116.332947 239.222275,117.074593 237.760376,116.813812 
	C234.479889,116.228645 234.689423,113.524483 235.454407,110.597794 
z"/>
<path fill="#9CC1DA" opacity="1.000000" stroke="none" 
	d="
M220.000198,104.850632 
	C218.425140,101.920708 218.050659,99.220268 221.465256,98.187958 
	C222.855652,97.767616 225.202835,98.455971 226.215256,99.506592 
	C226.993515,100.314240 226.919022,103.471382 226.251083,103.845055 
	C224.562256,104.789848 222.325165,104.754662 220.000198,104.850632 
z"/>
<path fill="#F75E8A" opacity="1.000000" stroke="none" 
	d="
M233.121109,195.962433 
	C232.389984,193.260483 232.122681,190.660034 231.800705,187.660950 
	C237.857605,187.106750 243.969162,186.951157 250.550018,186.755920 
	C251.424271,188.596252 251.829208,190.476227 252.176208,192.781982 
	C248.618240,193.904556 245.118240,194.601349 241.332306,195.507385 
	C238.559235,195.832397 236.072083,195.948166 233.121109,195.962433 
z"/>
<path fill="#FCA7A8" opacity="1.000000" stroke="none" 
	d="
M249.817612,211.418121 
	C249.465759,212.500214 249.079651,213.295883 248.693558,214.091537 
	C248.488724,214.028290 248.283905,213.965027 248.079071,213.901764 
	C248.170502,213.130798 248.135132,212.309174 248.413208,211.612732 
	C248.531235,211.317139 249.306702,211.284073 249.817612,211.418121 
z"/>
<path fill="#FCA7A8" opacity="1.000000" stroke="none" 
	d="
M236.004578,200.996613 
	C236.009155,200.993088 235.591614,200.747040 235.591614,200.747040 
	C235.591614,200.747040 235.907257,200.768387 235.949951,200.889008 
	C235.992661,201.009613 236.000000,201.000122 236.004578,200.996613 
z"/>
<path fill="#000000" opacity="1.000000" stroke="none" 
	d="
M452.262268,280.344147 
	C458.522369,272.363678 464.576569,264.685883 471.000275,256.539490 
	C471.000275,261.922119 470.415070,267.306610 471.118195,272.517242 
	C472.740265,284.537506 469.361237,293.928711 459.366089,301.324707 
	C453.327972,305.792664 448.236267,311.539551 442.538940,316.880890 
	C438.559082,302.627869 443.615936,291.185974 452.262268,280.344147 
z"/>
<path fill="#DA3A75" opacity="1.000000" stroke="none" 
	d="
M442.906799,323.868683 
	C441.314697,326.013336 439.465149,327.877380 437.323669,329.892578 
	C435.809052,325.080414 437.779388,322.816193 442.906799,323.868683 
z"/>
<path fill="#F16E93" opacity="1.000000" stroke="none" 
	d="
M418.975403,364.964172 
	C419.058105,364.697540 419.235870,364.528107 419.413605,364.358643 
	C419.463043,364.573212 419.512512,364.787811 419.413391,365.126984 
	C419.264832,365.251587 419.070496,365.061340 418.975403,364.964172 
z"/>
<path fill="#F12A50" opacity="1.000000" stroke="none" 
	d="
M98.833664,194.214325 
	C107.648277,207.316330 110.888161,221.245148 106.955078,236.316071 
	C101.324364,257.892029 80.186043,264.060883 64.281105,248.434814 
	C50.813602,235.203430 46.099190,218.719513 50.908581,200.331421 
	C56.632000,178.448685 77.828133,172.893295 94.016953,188.667282 
	C95.680130,190.287857 97.096672,192.161560 98.833664,194.214325 
M72.957954,204.339706 
	C67.065399,212.208649 68.338913,223.739243 75.783264,229.920639 
	C80.246407,233.626602 85.335136,233.962784 88.884888,230.443527 
	C93.202660,226.162842 93.792435,220.765213 92.464218,215.140106 
	C91.060211,209.194000 88.126114,203.998489 81.924942,202.320099 
	C79.441345,201.647919 76.343803,203.244141 72.957954,204.339706 
z"/>
<path fill="#FFE501" opacity="1.000000" stroke="none" 
	d="
M73.241837,204.073761 
	C76.343803,203.244141 79.441345,201.647919 81.924942,202.320099 
	C88.126114,203.998489 91.060211,209.194000 92.464218,215.140106 
	C93.792435,220.765213 93.202660,226.162842 88.884888,230.443527 
	C85.335136,233.962784 80.246407,233.626602 75.783264,229.920639 
	C68.338913,223.739243 67.065399,212.208649 73.241837,204.073761 
z"/>
</svg>