<svg version="1.1" id="Layer_1" xmlns="http://www.w3.org/2000/svg" xmlns:xlink="http://www.w3.org/1999/xlink" x="0px" y="0px"
	 width="100%" viewBox="0 0 235 214" enable-background="new 0 0 235 214" xml:space="preserve">
<path fill="#FEFEFF" opacity="1.000000" stroke="none" 
	d="
M1.000000,81.000000 
	C1.000000,54.000004 1.000000,27.500010 1.000000,1.000011 
	C79.333313,1.000007 157.666626,1.000007 235.999954,1.000004 
	C235.999969,72.333305 235.999969,143.666611 235.999985,214.999939 
	C157.666718,214.999954 79.333427,214.999954 1.000068,214.999969 
	C1.000000,170.500000 1.000000,126.000000 1.000000,81.000000 
M8.394398,113.702644 
	C11.442494,119.150940 13.791714,125.173744 17.693531,129.920242 
	C24.471897,138.166016 33.926140,143.021240 43.678196,147.068527 
	C46.434097,148.212280 47.404613,149.389404 47.297466,152.813629 
	C47.007751,162.072388 46.678654,171.520508 48.155460,180.602402 
	C50.834518,197.077744 61.464828,206.911057 76.251106,207.588745 
	C86.307648,208.049683 95.573982,204.640350 104.142746,199.553070 
	C109.107964,196.605209 113.827553,193.243637 118.741730,190.013000 
	C128.083603,197.080917 137.741730,203.464920 149.323395,206.301102 
	C168.308212,210.950226 182.665375,202.705856 188.146942,184.056152 
	C191.171997,173.764236 190.995438,163.313431 189.767349,152.879211 
	C189.365387,149.463852 190.659073,148.539810 193.216721,147.031128 
	C201.753784,141.995361 211.018707,137.586990 218.192902,130.972916 
	C233.379852,116.971703 233.276382,98.608192 217.989853,84.773331 
	C210.743683,78.215294 201.510239,73.802818 192.986969,68.738312 
	C190.588776,67.313301 189.443665,66.453033 189.711288,63.207546 
	C190.310638,55.939247 190.490784,48.559902 189.965576,41.289062 
	C188.059814,14.906264 168.445435,1.977284 143.845093,11.391237 
	C134.815048,14.846818 126.629669,20.509678 117.589996,25.420458 
	C108.931335,18.767290 99.101479,12.324238 87.352226,9.468060 
	C68.743179,4.944304 54.348438,13.279052 48.882591,31.674337 
	C45.828346,41.953381 45.929886,52.415367 47.235283,62.843803 
	C47.697136,66.533417 46.380825,67.614342 43.487961,68.982780 
	C37.797009,71.674812 32.019764,74.413239 26.880074,77.995903 
	C14.865895,86.370499 6.060275,96.778526 8.394398,113.702644 
z"/>
<path fill="#0C7FA5" opacity="1.000000" stroke="none" 
	d="
M8.268319,113.286072 
	C6.060275,96.778526 14.865895,86.370499 26.880074,77.995903 
	C32.019764,74.413239 37.797009,71.674812 43.487961,68.982780 
	C46.380825,67.614342 47.697136,66.533417 47.235283,62.843803 
	C45.929886,52.415367 45.828346,41.953381 48.882591,31.674337 
	C54.348438,13.279052 68.743179,4.944304 87.352226,9.468060 
	C99.101479,12.324238 108.931335,18.767290 117.589996,25.420458 
	C126.629669,20.509678 134.815048,14.846818 143.845093,11.391237 
	C168.445435,1.977284 188.059814,14.906264 189.965576,41.289062 
	C190.490784,48.559902 190.310638,55.939247 189.711288,63.207546 
	C189.443665,66.453033 190.588776,67.313301 192.986969,68.738312 
	C201.510239,73.802818 210.743683,78.215294 217.989853,84.773331 
	C233.276382,98.608192 233.379852,116.971703 218.192902,130.972916 
	C211.018707,137.586990 201.753784,141.995361 193.216721,147.031128 
	C190.659073,148.539810 189.365387,149.463852 189.767349,152.879211 
	C190.995438,163.313431 191.171997,173.764236 188.146942,184.056152 
	C182.665375,202.705856 168.308212,210.950226 149.323395,206.301102 
	C137.741730,203.464920 128.083603,197.080917 118.741730,190.013000 
	C113.827553,193.243637 109.107964,196.605209 104.142746,199.553070 
	C95.573982,204.640350 86.307648,208.049683 76.251106,207.588745 
	C61.464828,206.911057 50.834518,197.077744 48.155460,180.602402 
	C46.678654,171.520508 47.007751,162.072388 47.297466,152.813629 
	C47.404613,149.389404 46.434097,148.212280 43.678196,147.068527 
	C33.926140,143.021240 24.471897,138.166016 17.693531,129.920242 
	C13.791714,125.173744 11.442494,119.150940 8.268319,113.286072 
M90.542732,73.035576 
	C84.585037,83.591705 78.530495,94.095573 72.775322,104.760986 
	C71.924072,106.338516 71.702370,109.112251 72.521233,110.599037 
	C79.085655,122.517952 85.879463,134.314865 92.867393,145.990921 
	C93.781265,147.517899 96.178879,149.022354 97.916145,149.053818 
	C111.543594,149.300781 125.180199,149.313217 138.806564,149.034607 
	C140.682938,148.996231 143.269257,147.412048 144.252380,145.777130 
	C151.179947,134.256683 157.870010,122.588570 164.356110,110.813484 
	C165.193878,109.292557 165.136612,106.493431 164.286407,104.952766 
	C157.791763,93.183754 151.106461,81.514458 144.172226,69.999771 
	C143.195328,68.377571 140.570190,66.873650 138.668228,66.823517 
	C125.531937,66.477348 112.384392,66.588188 99.242043,66.424988 
	C94.854820,66.370506 92.823967,69.195992 90.542732,73.035576 
M53.160461,125.761002 
	C54.996063,120.773582 56.894993,115.807968 58.624359,110.783989 
	C59.077507,109.467529 59.499065,107.806496 59.094398,106.581413 
	C55.939026,97.028931 52.578270,87.544281 49.280888,78.038460 
	C39.834408,81.353584 30.356970,87.341644 24.684937,93.584251 
	C16.066357,103.069817 16.088118,113.028923 24.816956,122.451508 
	C31.636568,129.813126 40.219051,134.402664 49.615860,138.220108 
	C50.783566,134.163727 51.880692,130.352509 53.160461,125.761002 
M60.953506,186.410706 
	C64.732376,194.137482 70.910751,197.677261 79.484947,197.000290 
	C91.442795,196.056168 100.859138,189.728775 109.911438,183.067001 
	C103.281219,175.403564 96.905060,167.993668 90.461693,160.642670 
	C89.744255,159.824173 88.720398,158.965088 87.709961,158.760559 
	C77.881676,156.771210 68.025963,154.917450 57.716110,152.936279 
	C56.532505,164.159851 55.941624,175.145248 60.953506,186.410706 
M181.458557,96.932800 
	C180.157730,100.826424 177.063446,105.161766 177.893204,108.530632 
	C180.358322,118.539223 184.367874,128.167435 187.819260,138.074951 
	C197.844910,133.842651 207.205734,128.885910 214.018478,120.240753 
	C220.307388,112.260315 220.421799,103.979568 214.267380,96.005501 
	C207.350052,87.042976 197.743729,82.008003 187.469727,77.710762 
	C185.487717,84.169403 183.639053,90.193535 181.458557,96.932800 
M180.055893,164.517624 
	C179.812256,160.607025 179.568634,156.696426 179.334473,152.937836 
	C168.988464,154.908569 159.377762,156.692001 149.797302,158.625275 
	C148.628204,158.861221 147.381439,159.690353 146.577454,160.602951 
	C140.103119,167.951950 133.726364,175.386902 127.307533,182.809784 
	C133.439880,188.746246 146.117569,195.408295 154.070770,196.779419 
	C165.783203,198.798630 174.498566,193.729477 177.733063,182.180862 
	C179.234695,176.819260 179.327042,171.062927 180.055893,164.517624 
M158.775375,58.776237 
	C165.399490,60.189644 172.023605,61.603054 179.209824,63.136402 
	C180.570450,50.671803 181.369232,38.492161 174.783722,27.210001 
	C171.621811,21.793083 166.693848,19.045490 160.331909,18.923895 
	C147.005356,18.669191 136.863220,25.600243 126.815399,32.970455 
	C131.842819,38.463211 136.929321,43.145248 140.925903,48.622562 
	C145.300369,54.617786 150.213715,58.754707 158.775375,58.776237 
M106.008881,37.499081 
	C107.582245,36.337166 109.155602,35.175251 111.157852,33.696606 
	C102.150276,26.951107 94.008034,21.562910 84.218948,19.523487 
	C76.187370,17.850220 68.287704,18.300493 63.170795,25.839050 
	C55.356464,37.351608 56.378048,50.218483 57.808189,62.970558 
	C67.866974,60.995987 77.311867,59.230495 86.702438,57.212242 
	C88.286469,56.871792 89.923775,55.702240 91.044411,54.468731 
	C95.957535,49.060741 100.689766,43.488411 106.008881,37.499081 
M79.852516,69.391647 
	C73.183411,70.752090 66.514297,72.112534 59.311012,73.581940 
	C61.527191,81.047882 63.409550,87.389229 65.501297,94.435959 
	C70.635246,85.749191 75.243576,77.951790 79.852516,69.391647 
M117.940834,175.248337 
	C124.344643,171.807449 128.124054,165.882477 133.199738,160.465454 
	C122.981918,160.465454 113.793327,160.465454 103.443245,160.465454 
	C108.498672,165.694000 112.938202,170.285568 117.940834,175.248337 
M79.838425,146.565186 
	C75.277260,138.430283 70.716087,130.295380 65.566605,121.111214 
	C63.374336,128.710114 61.500401,135.205582 59.496132,142.152847 
	C66.594902,143.836044 72.857346,145.320923 79.838425,146.565186 
M171.196808,143.805557 
	C173.161255,143.108887 175.125717,142.412201 177.458023,141.585068 
	C175.437653,134.809601 173.547760,128.471725 171.418732,121.331856 
	C166.225113,130.352951 161.598785,138.388672 156.603561,147.065155 
	C161.721191,145.913406 166.057510,144.937500 171.196808,143.805557 
M163.716690,80.825668 
	C166.129318,85.172874 168.541931,89.520088 171.481766,94.817245 
	C173.693497,87.124016 175.543503,80.689034 177.564865,73.658020 
	C170.385635,72.095100 164.092270,70.725029 156.550507,69.083191 
	C159.387009,73.761299 161.344467,76.989647 163.716690,80.825668 
M115.580551,42.809696 
	C111.742195,46.881775 107.903839,50.953854 103.698441,55.415329 
	C114.018974,55.415329 123.197327,55.415329 133.473450,55.415329 
	C128.627563,50.373383 124.405716,45.812660 119.918938,41.529480 
	C119.370628,41.006050 117.400978,41.971512 115.580551,42.809696 
z"/>
<path fill="#FDFEFE" opacity="1.000000" stroke="none" 
	d="
M90.756302,72.737213 
	C92.823967,69.195992 94.854820,66.370506 99.242043,66.424988 
	C112.384392,66.588188 125.531937,66.477348 138.668228,66.823517 
	C140.570190,66.873650 143.195328,68.377571 144.172226,69.999771 
	C151.106461,81.514458 157.791763,93.183754 164.286407,104.952766 
	C165.136612,106.493431 165.193878,109.292557 164.356110,110.813484 
	C157.870010,122.588570 151.179947,134.256683 144.252380,145.777130 
	C143.269257,147.412048 140.682938,148.996231 138.806564,149.034607 
	C125.180199,149.313217 111.543594,149.300781 97.916145,149.053818 
	C96.178879,149.022354 93.781265,147.517899 92.867393,145.990921 
	C85.879463,134.314865 79.085655,122.517952 72.521233,110.599037 
	C71.702370,109.112251 71.924072,106.338516 72.775322,104.760986 
	C78.530495,94.095573 84.585037,83.591705 90.756302,72.737213 
M106.491943,125.165100 
	C115.604958,130.651489 124.347115,130.290497 131.870651,124.117119 
	C138.622040,118.577324 141.205170,109.449852 138.368271,101.157837 
	C135.491180,92.748367 127.932999,87.128487 119.254974,86.946152 
	C109.839188,86.748314 102.005463,92.008286 98.806671,100.676193 
	C95.589020,109.395226 98.161575,118.148468 106.491943,125.165100 
z"/>
<path fill="#FDFEFE" opacity="1.000000" stroke="none" 
	d="
M53.069138,126.151154 
	C51.880692,130.352509 50.783566,134.163727 49.615860,138.220108 
	C40.219051,134.402664 31.636568,129.813126 24.816956,122.451508 
	C16.088118,113.028923 16.066357,103.069817 24.684937,93.584251 
	C30.356970,87.341644 39.834408,81.353584 49.280888,78.038460 
	C52.578270,87.544281 55.939026,97.028931 59.094398,106.581413 
	C59.499065,107.806496 59.077507,109.467529 58.624359,110.783989 
	C56.894993,115.807968 54.996063,120.773582 53.069138,126.151154 
z"/>
<path fill="#FDFEFE" opacity="1.000000" stroke="none" 
	d="
M60.769459,186.076660 
	C55.941624,175.145248 56.532505,164.159851 57.716110,152.936279 
	C68.025963,154.917450 77.881676,156.771210 87.709961,158.760559 
	C88.720398,158.965088 89.744255,159.824173 90.461693,160.642670 
	C96.905060,167.993668 103.281219,175.403564 109.911438,183.067001 
	C100.859138,189.728775 91.442795,196.056168 79.484947,197.000290 
	C70.910751,197.677261 64.732376,194.137482 60.769459,186.076660 
z"/>
<path fill="#FDFEFE" opacity="1.000000" stroke="none" 
	d="
M181.624481,96.575226 
	C183.639053,90.193535 185.487717,84.169403 187.469727,77.710762 
	C197.743729,82.008003 207.350052,87.042976 214.267380,96.005501 
	C220.421799,103.979568 220.307388,112.260315 214.018478,120.240753 
	C207.205734,128.885910 197.844910,133.842651 187.819260,138.074951 
	C184.367874,128.167435 180.358322,118.539223 177.893204,108.530632 
	C177.063446,105.161766 180.157730,100.826424 181.624481,96.575226 
z"/>
<path fill="#FDFEFE" opacity="1.000000" stroke="none" 
	d="
M180.057083,165.001587 
	C179.327042,171.062927 179.234695,176.819260 177.733063,182.180862 
	C174.498566,193.729477 165.783203,198.798630 154.070770,196.779419 
	C146.117569,195.408295 133.439880,188.746246 127.307533,182.809784 
	C133.726364,175.386902 140.103119,167.951950 146.577454,160.602951 
	C147.381439,159.690353 148.628204,158.861221 149.797302,158.625275 
	C159.377762,156.692001 168.988464,154.908569 179.334473,152.937836 
	C179.568634,156.696426 179.812256,160.607025 180.057083,165.001587 
z"/>
<path fill="#FDFEFE" opacity="1.000000" stroke="none" 
	d="
M158.356567,58.684513 
	C150.213715,58.754707 145.300369,54.617786 140.925903,48.622562 
	C136.929321,43.145248 131.842819,38.463211 126.815399,32.970455 
	C136.863220,25.600243 147.005356,18.669191 160.331909,18.923895 
	C166.693848,19.045490 171.621811,21.793083 174.783722,27.210001 
	C181.369232,38.492161 180.570450,50.671803 179.209824,63.136402 
	C172.023605,61.603054 165.399490,60.189644 158.356567,58.684513 
z"/>
<path fill="#FDFEFE" opacity="1.000000" stroke="none" 
	d="
M105.748245,37.737381 
	C100.689766,43.488411 95.957535,49.060741 91.044411,54.468731 
	C89.923775,55.702240 88.286469,56.871792 86.702438,57.212242 
	C77.311867,59.230495 67.866974,60.995987 57.808189,62.970558 
	C56.378048,50.218483 55.356464,37.351608 63.170795,25.839050 
	C68.287704,18.300493 76.187370,17.850220 84.218948,19.523487 
	C94.008034,21.562910 102.150276,26.951107 111.157852,33.696606 
	C109.155602,35.175251 107.582245,36.337166 105.748245,37.737381 
z"/>
<path fill="#F5F9FB" opacity="1.000000" stroke="none" 
	d="
M79.852211,69.773010 
	C75.243576,77.951790 70.635246,85.749191 65.501297,94.435959 
	C63.409550,87.389229 61.527191,81.047882 59.311012,73.581940 
	C66.514297,72.112534 73.183411,70.752090 79.852211,69.773010 
z"/>
<path fill="#F6FAFB" opacity="1.000000" stroke="none" 
	d="
M117.659279,175.062729 
	C112.938202,170.285568 108.498672,165.694000 103.443245,160.465454 
	C113.793327,160.465454 122.981918,160.465454 133.199738,160.465454 
	C128.124054,165.882477 124.344643,171.807449 117.659279,175.062729 
z"/>
<path fill="#F6FAFB" opacity="1.000000" stroke="none" 
	d="
M79.479103,146.685501 
	C72.857346,145.320923 66.594902,143.836044 59.496132,142.152847 
	C61.500401,135.205582 63.374336,128.710114 65.566605,121.111214 
	C70.716087,130.295380 75.277260,138.430283 79.479103,146.685501 
z"/>
<path fill="#F6FAFB" opacity="1.000000" stroke="none" 
	d="
M170.795319,143.883575 
	C166.057510,144.937500 161.721191,145.913406 156.603561,147.065155 
	C161.598785,138.388672 166.225113,130.352951 171.418732,121.331856 
	C173.547760,128.471725 175.437653,134.809601 177.458023,141.585068 
	C175.125717,142.412201 173.161255,143.108887 170.795319,143.883575 
z"/>
<path fill="#F7FAFB" opacity="1.000000" stroke="none" 
	d="
M163.509308,80.521835 
	C161.344467,76.989647 159.387009,73.761299 156.550507,69.083191 
	C164.092270,70.725029 170.385635,72.095100 177.564865,73.658020 
	C175.543503,80.689034 173.693497,87.124016 171.481766,94.817245 
	C168.541931,89.520088 166.129318,85.172874 163.509308,80.521835 
z"/>
<path fill="#F8FBFC" opacity="1.000000" stroke="none" 
	d="
M115.835289,42.528332 
	C117.400978,41.971512 119.370628,41.006050 119.918938,41.529480 
	C124.405716,45.812660 128.627563,50.373383 133.473450,55.415329 
	C123.197327,55.415329 114.018974,55.415329 103.698441,55.415329 
	C107.903839,50.953854 111.742195,46.881775 115.835289,42.528332 
z"/>
<path fill="#0A7FA5" opacity="1.000000" stroke="none" 
	d="
M106.186722,124.956871 
	C98.161575,118.148468 95.589020,109.395226 98.806671,100.676193 
	C102.005463,92.008286 109.839188,86.748314 119.254974,86.946152 
	C127.932999,87.128487 135.491180,92.748367 138.368271,101.157837 
	C141.205170,109.449852 138.622040,118.577324 131.870651,124.117119 
	C124.347115,130.290497 115.604958,130.651489 106.186722,124.956871 
z"/>
</svg>